<svg width="369" height="53" viewBox="0 0 369 53" fill="none" xmlns="http://www.w3.org/2000/svg">
<rect width="369" height="53" rx="26.5" fill="#EF8A1B"/>
<path d="M62.5067 33.1542C61.4656 33.1542 60.6303 32.9165 60.0005 32.4409C59.3707 31.9526 58.9338 31.22 58.6896 30.2432C58.3811 30.7188 57.9699 31.0915 57.4558 31.3614C56.9417 31.6184 56.3312 31.7469 55.6244 31.7469C54.4934 31.7469 53.6451 31.4577 53.0797 30.8794C52.527 30.2882 52.2507 29.5042 52.2507 28.5275C52.2507 27.9363 52.3792 27.3708 52.6363 26.831C52.8933 26.2784 53.3238 25.7643 53.9279 25.2887C54.5319 24.8004 55.348 24.3698 56.3762 23.9971L58.4004 23.2838V22.397C58.4004 22.23 58.439 22.1079 58.5161 22.0307C58.606 21.9536 58.7281 21.9151 58.8824 21.9151H61.0415C61.17 21.9151 61.2664 21.9601 61.3307 22.05C61.395 22.1271 61.4271 22.2235 61.4271 22.3392V27.5636C61.4271 28.2704 61.5299 28.7395 61.7355 28.9709C61.954 29.2022 62.3589 29.3179 62.9501 29.3179H63.3356C63.4256 29.3179 63.4963 29.35 63.5477 29.4143C63.5991 29.4657 63.6248 29.5364 63.6248 29.6263V32.5952C63.6248 32.9679 63.432 33.1542 63.0464 33.1542H62.5067ZM56.6076 28.6817C56.9289 28.6817 57.2245 28.611 57.4943 28.4696C57.7771 28.3283 58.002 28.1291 58.1691 27.872C58.3362 27.6021 58.4197 27.2744 58.4197 26.8888V26.002L56.9546 26.4454C56.4919 26.5868 56.1256 26.7732 55.8557 27.0045C55.5987 27.223 55.4701 27.4736 55.4701 27.7563C55.4701 28.0391 55.573 28.264 55.7786 28.4311C55.9842 28.5982 56.2605 28.6817 56.6076 28.6817ZM58.7474 20.3921C58.6703 20.4692 58.5611 20.5142 58.4197 20.527C58.2912 20.527 58.1755 20.4756 58.0727 20.3728L56.9931 19.2932C56.916 19.2033 56.871 19.094 56.8582 18.9655C56.8453 18.837 56.8903 18.7213 56.9931 18.6185L58.0727 17.5389C58.1755 17.4361 58.2912 17.3911 58.4197 17.404C58.5482 17.404 58.6575 17.449 58.7474 17.5389L59.827 18.6185C59.9298 18.7213 59.9812 18.8434 59.9812 18.9848C59.9941 19.1133 59.9491 19.2226 59.8463 19.3125L58.7474 20.3921ZM61.7741 20.3921C61.6713 20.4949 61.5556 20.5399 61.4271 20.527C61.2986 20.5142 61.1893 20.4628 61.0994 20.3728L60.0005 19.2932C59.9105 19.2033 59.8656 19.094 59.8656 18.9655C59.8656 18.8241 59.9105 18.7085 60.0005 18.6185L61.0994 17.5389C61.1893 17.449 61.2921 17.404 61.4078 17.404C61.5363 17.3911 61.652 17.4361 61.7548 17.5389L62.8344 18.6185C62.9372 18.7213 62.9886 18.837 62.9886 18.9655C63.0015 19.094 62.9565 19.2097 62.8537 19.3125L61.7741 20.3921ZM63.0389 33.1542C62.8461 33.1542 62.7497 33.0578 62.7497 32.8651V29.8962C62.7497 29.5107 62.9425 29.3179 63.3281 29.3179H68.5717C68.9445 29.3179 69.2079 29.2536 69.3621 29.1251C69.5164 28.9837 69.5935 28.7909 69.5935 28.5468C69.5935 28.3797 69.5099 28.2319 69.3429 28.1034C69.1886 27.962 68.983 27.8206 68.726 27.6792L64.8511 25.443C64.6326 25.3145 64.4591 25.1731 64.3306 25.0189C64.2149 24.8646 64.157 24.614 64.157 24.267V21.7223C64.157 21.3753 64.202 21.1311 64.292 20.9897C64.3948 20.8484 64.5619 20.7391 64.7932 20.662L72.1189 18.0594C72.2988 17.9952 72.4402 18.0016 72.543 18.0787C72.6459 18.1558 72.6973 18.2972 72.6973 18.5028V20.5463C72.6973 20.7263 72.6587 20.8869 72.5816 21.0283C72.5173 21.1697 72.3952 21.2725 72.2153 21.3367L66.721 23.1296L69.5164 24.749C70.3132 25.1345 70.9494 25.5072 71.4249 25.8671C71.9133 26.227 72.2731 26.6318 72.5045 27.0816C72.7487 27.5314 72.8708 28.0841 72.8708 28.7395C72.8708 29.6392 72.6587 30.4232 72.2346 31.0915C71.8233 31.7598 71.2514 32.2739 70.5188 32.6337C69.7991 32.9807 68.9766 33.1542 68.0512 33.1542H63.0389ZM73.201 37.8966C72.9697 37.8966 72.8026 37.8324 72.6998 37.7039C72.597 37.5882 72.5456 37.434 72.5456 37.2412V35.0628C72.5456 34.87 72.6163 34.7222 72.7577 34.6194C72.8862 34.5294 73.0661 34.4844 73.2974 34.4844H73.6252C74.8076 34.4844 75.6429 34.2017 76.1313 33.6362C76.6326 33.0707 76.8832 32.2674 76.8832 31.2264C76.8832 30.7766 76.8382 30.3203 76.7482 29.8577C76.6711 29.3821 76.5876 28.9452 76.4976 28.5468L76.0928 26.7153C76.0542 26.4583 76.0799 26.2719 76.1699 26.1563C76.2727 26.0277 76.4655 25.9314 76.7482 25.8671L78.4447 25.4623C78.6632 25.398 78.8174 25.398 78.9074 25.4623C79.0102 25.5265 79.0809 25.6229 79.1194 25.7514C79.1708 25.8671 79.2094 25.9956 79.2351 26.137L79.7556 28.219C79.8327 28.5146 79.9355 28.746 80.0641 28.913C80.2054 29.0673 80.3854 29.1765 80.6039 29.2408C80.8352 29.2922 81.1244 29.3179 81.4714 29.3179H81.8184C82.024 29.3179 82.1268 29.4143 82.1268 29.607V32.5759C82.1268 32.9614 81.934 33.1542 81.5485 33.1542C81.1244 33.1542 80.7388 33.1092 80.3918 33.0193C80.0576 32.9293 79.8456 32.8072 79.7556 32.653C79.7299 33.3984 79.5821 34.086 79.3122 34.7158C79.0552 35.3584 78.6825 35.9174 78.1941 36.393C77.7057 36.8685 77.1017 37.2348 76.3819 37.4918C75.6751 37.7617 74.859 37.8966 73.9336 37.8966H73.201ZM87.2515 33.1735C86.7631 33.1735 86.249 33.0771 85.7092 32.8843C85.1823 32.6787 84.7582 32.3124 84.4369 31.7855C84.077 32.3253 83.6272 32.6915 83.0874 32.8843C82.5476 33.0643 82.0335 33.1542 81.5452 33.1542C81.3524 33.1542 81.256 33.0578 81.256 32.8651V29.8962C81.256 29.5107 81.4488 29.3179 81.8343 29.3179C82.3998 29.3179 82.7725 29.2215 82.9525 29.0287C83.1452 28.8231 83.2416 28.4439 83.2416 27.8913V26.5611C83.2416 26.3812 83.2866 26.2398 83.3766 26.137C83.4794 26.0213 83.6144 25.9635 83.7814 25.9635H85.7478C86.1077 25.9635 86.2876 26.1563 86.2876 26.5418V27.9299C86.2876 28.354 86.3775 28.6946 86.5575 28.9516C86.7374 29.2086 87.0523 29.3372 87.5021 29.3372C87.9648 29.3372 88.2668 29.2086 88.4082 28.9516C88.5624 28.6946 88.6395 28.3154 88.6395 27.8142V26.5611C88.6395 26.3812 88.6845 26.2398 88.7745 26.137C88.8773 26.0213 89.0122 25.9635 89.1793 25.9635H91.1264C91.2935 25.9635 91.422 26.0213 91.512 26.137C91.6148 26.2398 91.6662 26.3812 91.6662 26.5611V27.9684C91.6662 28.4054 91.7626 28.746 91.9554 28.9901C92.161 29.2215 92.4694 29.3372 92.8807 29.3372C93.2406 29.3372 93.5362 29.2408 93.7675 29.048C93.9988 28.8552 94.1145 28.5596 94.1145 28.1612C94.1145 28.0712 94.1081 27.9813 94.0952 27.8913C94.0952 27.7885 94.0759 27.6857 94.0374 27.5828L93.6518 25.8864C93.6004 25.6807 93.6133 25.5329 93.6904 25.443C93.7675 25.353 93.8832 25.2887 94.0374 25.2502L96.0423 24.7682C96.2222 24.7297 96.3508 24.749 96.4279 24.8261C96.505 24.8903 96.5628 25.0124 96.6014 25.1924L96.9291 26.6768C97.0191 27.0623 97.0833 27.4286 97.1219 27.7756C97.1733 28.1226 97.199 28.4568 97.199 28.7781C97.199 29.7548 97.0191 30.571 96.6592 31.2264C96.2994 31.869 95.7917 32.3574 95.1362 32.6915C94.4936 33.0129 93.7482 33.1735 92.9 33.1735C92.3345 33.1735 91.769 33.0771 91.2035 32.8843C90.6509 32.6787 90.2075 32.3381 89.8733 31.8626C89.6677 32.2224 89.4171 32.4988 89.1215 32.6915C88.8259 32.8843 88.511 33.0129 88.1768 33.0771C87.8555 33.1414 87.5471 33.1735 87.2515 33.1735ZM90.4517 21.5873C90.3617 21.6773 90.2525 21.7223 90.1239 21.7223C90.0083 21.7094 89.9054 21.658 89.8155 21.5681L88.7745 20.5463C88.5817 20.3278 88.5817 20.1222 88.7745 19.9294L89.8155 18.8884C90.0211 18.6828 90.2268 18.6828 90.4324 18.8884L91.4541 19.9294C91.6726 20.1608 91.6855 20.3728 91.4927 20.5656L90.4517 21.5873ZM88.9672 24.3634C88.8901 24.4405 88.7809 24.4855 88.6395 24.4983C88.511 24.4983 88.3953 24.4469 88.2925 24.3441L87.2129 23.2645C87.123 23.1746 87.078 23.0653 87.078 22.9368C87.078 22.7954 87.123 22.6798 87.2129 22.5898L88.2925 21.5102C88.5238 21.2789 88.7488 21.2789 88.9672 21.5102L90.0468 22.5898C90.1496 22.6926 90.201 22.8147 90.201 22.9561C90.2139 23.0846 90.1689 23.1939 90.0661 23.2838L88.9672 24.3634ZM91.9939 24.3634C91.8911 24.4662 91.7754 24.5112 91.6469 24.4983C91.5184 24.4855 91.4091 24.4341 91.3192 24.3441L90.2203 23.2645C90.1304 23.1746 90.0854 23.0589 90.0854 22.9175C90.0854 22.7762 90.1304 22.6669 90.2203 22.5898L91.3192 21.5102C91.5505 21.3046 91.769 21.3046 91.9746 21.5102L93.0542 22.5898C93.1442 22.6798 93.1956 22.7954 93.2084 22.9368C93.2213 23.0653 93.1763 23.181 93.0735 23.2838L91.9939 24.3634ZM107.145 33C107.004 33 106.882 32.955 106.779 32.8651C106.689 32.7622 106.644 32.6401 106.644 32.4988V24.0164L104.234 25.8671C104.105 25.9571 103.977 25.9892 103.848 25.9635C103.733 25.9249 103.624 25.8414 103.521 25.7129L102.113 23.8814C102.049 23.7658 102.023 23.6373 102.036 23.4959C102.062 23.3545 102.139 23.2453 102.268 23.1682L106.817 19.6403C106.882 19.5888 106.946 19.5567 107.01 19.5439C107.074 19.5182 107.151 19.5053 107.241 19.5053H110.268C110.409 19.5053 110.532 19.5567 110.634 19.6595C110.737 19.7495 110.789 19.8652 110.789 20.0065V32.4988C110.789 32.6401 110.737 32.7622 110.634 32.8651C110.532 32.955 110.409 33 110.268 33H107.145ZM118.68 33.1928C117.729 33.1928 116.9 33.0643 116.193 32.8072C115.486 32.5502 114.895 32.1967 114.419 31.7469C113.957 31.2971 113.597 30.7702 113.34 30.1661C113.083 29.5492 112.929 28.8873 112.877 28.1805C112.864 27.8335 112.852 27.4222 112.839 26.9467C112.839 26.4711 112.839 25.9956 112.839 25.5201C112.852 25.0317 112.864 24.6076 112.877 24.2477C112.929 23.5409 113.083 22.8918 113.34 22.3006C113.61 21.6966 113.989 21.1761 114.477 20.7391C114.966 20.2893 115.557 19.9423 116.251 19.6981C116.945 19.441 117.755 19.3125 118.68 19.3125C119.592 19.3125 120.396 19.441 121.09 19.6981C121.797 19.9423 122.388 20.2893 122.863 20.7391C123.352 21.1761 123.724 21.6966 123.981 22.3006C124.251 22.8918 124.412 23.5409 124.463 24.2477C124.489 24.6076 124.502 25.0317 124.502 25.5201C124.502 25.9956 124.502 26.4711 124.502 26.9467C124.502 27.4222 124.489 27.8335 124.463 28.1805C124.412 28.8873 124.258 29.5492 124.001 30.1661C123.757 30.7702 123.397 31.2971 122.921 31.7469C122.446 32.1967 121.854 32.5502 121.148 32.8072C120.441 33.0643 119.618 33.1928 118.68 33.1928ZM118.68 29.8962C119.194 29.8962 119.56 29.7291 119.779 29.395C120.01 29.0608 120.139 28.6239 120.164 28.0841C120.177 27.7114 120.184 27.3065 120.184 26.8696C120.197 26.4326 120.197 25.9956 120.184 25.5586C120.184 25.1088 120.177 24.7104 120.164 24.3634C120.139 23.8493 120.017 23.4252 119.798 23.091C119.58 22.744 119.207 22.5641 118.68 22.5513C118.153 22.5641 117.78 22.744 117.562 23.091C117.343 23.4252 117.221 23.8493 117.196 24.3634C117.183 24.7104 117.17 25.1088 117.157 25.5586C117.157 25.9956 117.157 26.4326 117.157 26.8696C117.17 27.3065 117.183 27.7114 117.196 28.0841C117.221 28.6239 117.343 29.0608 117.562 29.395C117.793 29.7291 118.166 29.8962 118.68 29.8962ZM132.16 33.1928C131.209 33.1928 130.38 33.0643 129.673 32.8072C128.966 32.5502 128.375 32.1967 127.899 31.7469C127.436 31.2971 127.077 30.7702 126.82 30.1661C126.563 29.5492 126.408 28.8873 126.357 28.1805C126.344 27.8335 126.331 27.4222 126.318 26.9467C126.318 26.4711 126.318 25.9956 126.318 25.5201C126.331 25.0317 126.344 24.6076 126.357 24.2477C126.408 23.5409 126.563 22.8918 126.82 22.3006C127.089 21.6966 127.469 21.1761 127.957 20.7391C128.445 20.2893 129.037 19.9423 129.731 19.6981C130.425 19.441 131.234 19.3125 132.16 19.3125C133.072 19.3125 133.875 19.441 134.569 19.6981C135.276 19.9423 135.867 20.2893 136.343 20.7391C136.831 21.1761 137.204 21.6966 137.461 22.3006C137.731 22.8918 137.892 23.5409 137.943 24.2477C137.969 24.6076 137.982 25.0317 137.982 25.5201C137.982 25.9956 137.982 26.4711 137.982 26.9467C137.982 27.4222 137.969 27.8335 137.943 28.1805C137.892 28.8873 137.737 29.5492 137.48 30.1661C137.236 30.7702 136.876 31.2971 136.401 31.7469C135.925 32.1967 135.334 32.5502 134.627 32.8072C133.92 33.0643 133.098 33.1928 132.16 33.1928ZM132.16 29.8962C132.674 29.8962 133.04 29.7291 133.258 29.395C133.49 29.0608 133.618 28.6239 133.644 28.0841C133.657 27.7114 133.663 27.3065 133.663 26.8696C133.676 26.4326 133.676 25.9956 133.663 25.5586C133.663 25.1088 133.657 24.7104 133.644 24.3634C133.618 23.8493 133.496 23.4252 133.278 23.091C133.059 22.744 132.687 22.5641 132.16 22.5513C131.633 22.5641 131.26 22.744 131.041 23.091C130.823 23.4252 130.701 23.8493 130.675 24.3634C130.662 24.7104 130.649 25.1088 130.637 25.5586C130.637 25.9956 130.637 26.4326 130.637 26.8696C130.649 27.3065 130.662 27.7114 130.675 28.0841C130.701 28.6239 130.823 29.0608 131.041 29.395C131.273 29.7291 131.646 29.8962 132.16 29.8962ZM143.731 32.3638C143.589 32.3638 143.467 32.3188 143.364 32.2289C143.274 32.1261 143.229 32.004 143.229 31.8626V28.5468H140.01C139.869 28.5468 139.747 28.5018 139.644 28.4118C139.554 28.309 139.509 28.1869 139.509 28.0455V26.2912C139.509 26.1498 139.554 26.0342 139.644 25.9442C139.747 25.8414 139.869 25.79 140.01 25.79H143.229V22.5705C143.229 22.4292 143.274 22.3135 143.364 22.2235C143.467 22.1207 143.589 22.0693 143.731 22.0693H145.697C145.838 22.0693 145.954 22.1207 146.044 22.2235C146.147 22.3135 146.198 22.4292 146.198 22.5705V25.79H149.379C149.521 25.79 149.636 25.8414 149.726 25.9442C149.829 26.0342 149.88 26.1498 149.88 26.2912V28.0455C149.88 28.1869 149.829 28.309 149.726 28.4118C149.636 28.5018 149.521 28.5468 149.379 28.5468H146.198V31.8626C146.198 32.004 146.147 32.1261 146.044 32.2289C145.954 32.3188 145.838 32.3638 145.697 32.3638H143.731ZM160.557 37.2026C159.426 37.2026 158.443 36.952 157.608 36.4508C156.772 35.9496 156.13 35.2555 155.68 34.3687C155.23 33.4948 155.005 32.4859 155.005 31.3421C155.005 30.828 155.063 30.2946 155.179 29.742C155.294 29.1765 155.474 28.6046 155.718 28.0262C155.808 27.7821 155.924 27.6085 156.065 27.5057C156.207 27.3901 156.387 27.3644 156.605 27.4286L157.916 27.7756C158.16 27.8399 158.314 27.917 158.379 28.007C158.443 28.0841 158.443 28.2126 158.379 28.3925C158.212 28.7909 158.09 29.1765 158.012 29.5492C157.935 29.9091 157.897 30.2432 157.897 30.5517C157.897 31.1557 158.019 31.6634 158.263 32.0746C158.52 32.4859 158.867 32.7944 159.304 33C159.754 33.2185 160.268 33.3277 160.846 33.3277H161.232C161.772 33.3277 162.267 33.2056 162.716 32.9614C163.179 32.7173 163.545 32.351 163.815 31.8626C164.098 31.3614 164.239 30.7445 164.239 30.0119V18.9848C164.239 18.8563 164.278 18.7535 164.355 18.6763C164.445 18.5864 164.554 18.5414 164.683 18.5414H166.996C167.137 18.5414 167.247 18.5864 167.324 18.6763C167.401 18.7535 167.439 18.8563 167.439 18.9848V27.6985C167.439 28.1355 167.504 28.4761 167.632 28.7203C167.761 28.9516 167.966 29.1122 168.249 29.2022C168.545 29.2793 168.911 29.3179 169.348 29.3179C169.541 29.3179 169.637 29.4143 169.637 29.607V32.5759C169.637 32.9614 169.444 33.1542 169.059 33.1542C168.596 33.1542 168.127 33.1028 167.652 33C167.176 32.91 166.771 32.7494 166.437 32.518C166.206 33.5334 165.807 34.388 165.242 35.082C164.676 35.7889 164.014 36.3158 163.256 36.6628C162.498 37.0227 161.727 37.2026 160.943 37.2026H160.557ZM169.05 33.1542C168.857 33.1542 168.761 33.0578 168.761 32.8651V29.8962C168.761 29.5107 168.953 29.3179 169.339 29.3179H169.416C169.904 29.3179 170.239 29.1958 170.419 28.9516C170.611 28.7074 170.708 28.2897 170.708 27.6985V25.9056C170.708 25.5201 170.888 25.3273 171.248 25.3273H173.214C173.574 25.3273 173.754 25.5201 173.754 25.9056V27.6985C173.754 28.3154 173.876 28.7395 174.12 28.9709C174.377 29.2022 174.801 29.3179 175.392 29.3179H175.508C175.701 29.3179 175.797 29.4143 175.797 29.607V32.5759C175.797 32.9614 175.604 33.1542 175.219 33.1542C174.538 33.1542 173.901 33.0257 173.31 32.7687C172.732 32.5116 172.269 32.0682 171.922 31.4385C171.614 32.1068 171.203 32.563 170.688 32.8072C170.187 33.0386 169.641 33.1542 169.05 33.1542ZM172.404 37.1255C172.314 37.2155 172.199 37.254 172.057 37.2412C171.929 37.2412 171.819 37.1962 171.729 37.1062L170.65 36.0459C170.573 35.956 170.534 35.8403 170.534 35.6989C170.534 35.5704 170.573 35.4547 170.65 35.3519L171.729 34.2916C171.819 34.1888 171.929 34.1374 172.057 34.1374C172.186 34.1374 172.295 34.1888 172.385 34.2916L173.445 35.3519C173.548 35.4547 173.599 35.5704 173.599 35.6989C173.612 35.8403 173.574 35.9624 173.484 36.0652L172.404 37.1255ZM175.495 33.1542C175.263 33.1542 175.116 33.1157 175.051 33.0386C174.974 32.9614 174.936 32.8715 174.936 32.7687C174.936 32.653 174.936 32.5566 174.936 32.4795V30.0312C174.936 29.787 174.968 29.607 175.032 29.4914C175.096 29.3757 175.251 29.3179 175.495 29.3179H179.774C180.597 29.3179 181.22 29.2086 181.644 28.9901C182.069 28.7588 182.332 28.3925 182.435 27.8913C182.538 27.3772 182.512 26.6896 182.358 25.8285L183.11 26.6382C182.878 27.0752 182.506 27.435 181.991 27.7178C181.477 28.0005 180.841 28.1419 180.083 28.1419C179.35 28.1419 178.714 27.9941 178.174 27.6985C177.635 27.3901 177.217 26.9659 176.921 26.4262C176.639 25.8864 176.504 25.2566 176.516 24.5369C176.529 23.7786 176.716 23.0846 177.076 22.4549C177.435 21.8251 177.917 21.3239 178.521 20.9512C179.138 20.5656 179.826 20.3728 180.584 20.3728C181.445 20.3728 182.21 20.6042 182.878 21.0668C183.559 21.5295 184.093 22.1721 184.478 22.9946C184.877 23.8043 185.076 24.7297 185.076 25.7707C185.102 26.6961 185.031 27.5957 184.864 28.4696C184.71 29.3436 184.421 30.134 183.996 30.8408C183.572 31.5477 182.981 32.1132 182.223 32.5373C181.465 32.9486 180.494 33.1542 179.312 33.1542H175.495ZM180.334 25.2309C180.668 25.2309 181.008 25.1859 181.355 25.096C181.715 24.9931 182.03 24.8646 182.3 24.7104C182.171 24.4277 181.998 24.1835 181.779 23.9778C181.574 23.7722 181.342 23.6116 181.085 23.4959C180.828 23.3674 180.565 23.3031 180.295 23.3031C180.038 23.3031 179.813 23.3545 179.62 23.4573C179.427 23.5601 179.28 23.6887 179.177 23.8429C179.074 23.9971 179.023 24.1642 179.023 24.3441C179.023 24.6526 179.151 24.8775 179.408 25.0189C179.678 25.1602 179.987 25.2309 180.334 25.2309ZM179.408 18.7342C179.331 18.8113 179.222 18.8563 179.08 18.8691C178.952 18.8691 178.836 18.8177 178.733 18.7149L177.654 17.6353C177.577 17.5454 177.532 17.4361 177.519 17.3076C177.506 17.1791 177.551 17.0634 177.654 16.9606L178.733 15.881C178.836 15.7782 178.952 15.7332 179.08 15.7461C179.209 15.7461 179.318 15.7911 179.408 15.881L180.488 16.9606C180.591 17.0634 180.642 17.1855 180.642 17.3269C180.655 17.4554 180.61 17.5646 180.507 17.6546L179.408 18.7342ZM182.435 18.7342C182.332 18.837 182.216 18.882 182.088 18.8691C181.959 18.8563 181.85 18.8049 181.76 18.7149L180.661 17.6353C180.571 17.5454 180.526 17.4361 180.526 17.3076C180.526 17.1662 180.571 17.0506 180.661 16.9606L181.76 15.881C181.85 15.7911 181.953 15.7461 182.069 15.7461C182.197 15.7332 182.313 15.7782 182.416 15.881L183.495 16.9606C183.598 17.0634 183.649 17.1791 183.649 17.3076C183.662 17.4361 183.617 17.5518 183.514 17.6546L182.435 18.7342ZM195.955 36.6628C194.747 36.6628 193.699 36.4187 192.812 35.9303C191.938 35.4547 191.257 34.7864 190.769 33.9254C190.293 33.0643 190.056 32.0682 190.056 30.9372C190.056 30.3717 190.12 29.787 190.248 29.1829C190.377 28.5789 190.544 28.0455 190.75 27.5828C190.878 27.2872 191 27.0945 191.116 27.0045C191.232 26.9017 191.392 26.876 191.598 26.9274L193.159 27.3515C193.429 27.4158 193.577 27.5057 193.603 27.6214C193.641 27.7371 193.616 27.8977 193.526 28.1034C193.371 28.4632 193.256 28.8231 193.179 29.1829C193.102 29.5428 193.063 29.8769 193.063 30.1854C193.063 31.0208 193.326 31.6955 193.853 32.2096C194.38 32.7237 195.145 32.9807 196.147 32.9807C197.24 32.9807 198.05 32.7173 198.577 32.1903C199.103 31.6505 199.354 30.8858 199.328 29.8962C199.303 29.4593 199.238 28.9901 199.136 28.4889C199.046 27.9877 198.917 27.435 198.75 26.831C198.634 26.4454 198.776 26.2012 199.174 26.0984L201.218 25.5972C201.398 25.5586 201.526 25.5779 201.603 25.655C201.693 25.7321 201.764 25.8542 201.815 26.0213C201.944 26.4583 202.053 26.8567 202.143 27.2166C202.233 27.5764 202.316 27.9813 202.394 28.4311C202.471 28.7909 202.618 29.0287 202.837 29.1444C203.068 29.26 203.37 29.3179 203.743 29.3179H204.071C204.264 29.3179 204.36 29.4143 204.36 29.607V32.5759C204.36 32.9614 204.154 33.1542 203.743 33.1542C203.447 33.1542 203.107 33.1092 202.721 33.0193C202.349 32.9293 202.021 32.7301 201.738 32.4217C201.571 33.2442 201.218 33.9768 200.678 34.6194C200.138 35.262 199.463 35.7632 198.654 36.1231C197.844 36.4829 196.944 36.6628 195.955 36.6628ZM196.36 25.5779C196.27 25.6679 196.147 25.7129 195.993 25.7129C195.852 25.7 195.736 25.6486 195.646 25.5586L194.509 24.4212C194.406 24.3184 194.355 24.2027 194.355 24.0742C194.355 23.9329 194.406 23.8108 194.509 23.7079L195.646 22.5705C195.736 22.4677 195.852 22.4163 195.993 22.4163C196.135 22.4163 196.25 22.4677 196.34 22.5705L197.439 23.7079C197.696 23.965 197.715 24.2092 197.497 24.4405L196.36 25.5779ZM210.435 33.1542C210.063 33.1414 209.728 33.1092 209.433 33.0578C209.15 33.0193 208.861 32.955 208.565 32.8651C208.283 32.7751 207.974 32.6594 207.64 32.518C207.306 32.3638 206.92 32.1775 206.483 31.959C206.226 32.2289 205.943 32.4538 205.635 32.6337C205.339 32.8136 205.031 32.9422 204.71 33.0193C204.401 33.1092 204.093 33.1542 203.784 33.1542C203.592 33.1542 203.495 33.0578 203.495 32.8651V29.8962C203.495 29.5107 203.688 29.3179 204.073 29.3179C204.318 29.3179 204.53 29.2857 204.71 29.2215C204.89 29.1572 205.076 29.0159 205.269 28.7974C205.462 28.566 205.693 28.2254 205.963 27.7756C206.438 26.9402 206.92 26.2912 207.409 25.8285C207.897 25.3659 208.398 25.0381 208.912 24.8454C209.426 24.6526 209.947 24.5562 210.474 24.5562C211.194 24.5562 211.849 24.7233 212.44 25.0574C213.044 25.3916 213.526 25.8928 213.886 26.5611C214.259 27.2166 214.445 28.0262 214.445 28.9901C214.445 29.5299 214.362 30.0504 214.195 30.5517C214.027 31.0529 213.777 31.5092 213.443 31.9204C213.121 32.3188 212.71 32.6337 212.209 32.8651C211.708 33.0835 211.116 33.1799 210.435 33.1542ZM210.474 29.9155C210.769 29.9284 211.007 29.8448 211.187 29.6649C211.367 29.485 211.463 29.2279 211.476 28.8938C211.476 28.6367 211.418 28.4118 211.303 28.219C211.2 28.0134 211.052 27.8527 210.859 27.7371C210.667 27.6214 210.448 27.5636 210.204 27.5636C209.973 27.5636 209.748 27.6214 209.529 27.7371C209.311 27.8399 209.092 28.0134 208.874 28.2576C208.668 28.4889 208.443 28.7974 208.199 29.1829C208.585 29.3757 208.899 29.5235 209.144 29.6263C209.401 29.7291 209.632 29.7998 209.838 29.8384C210.043 29.8769 210.255 29.9026 210.474 29.9155ZM230.117 33.1542C229.076 33.1542 228.241 32.9165 227.611 32.4409C226.981 31.9526 226.544 31.22 226.3 30.2432C225.992 30.7188 225.58 31.0915 225.066 31.3614C224.552 31.6184 223.942 31.7469 223.235 31.7469C222.104 31.7469 221.256 31.4577 220.69 30.8794C220.138 30.2882 219.861 29.5042 219.861 28.5275C219.861 27.9363 219.99 27.3708 220.247 26.831C220.504 26.2784 220.934 25.7643 221.538 25.2887C222.142 24.8004 222.959 24.3698 223.987 23.9971L226.011 23.2838V22.397C226.011 22.23 226.05 22.1079 226.127 22.0307C226.217 21.9536 226.339 21.9151 226.493 21.9151H228.652C228.781 21.9151 228.877 21.9601 228.941 22.05C229.005 22.1271 229.038 22.2235 229.038 22.3392V27.5636C229.038 28.2704 229.14 28.7395 229.346 28.9709C229.565 29.2022 229.969 29.3179 230.561 29.3179H230.946C231.036 29.3179 231.107 29.35 231.158 29.4143C231.21 29.4657 231.235 29.5364 231.235 29.6263V32.5952C231.235 32.9679 231.043 33.1542 230.657 33.1542H230.117ZM224.218 28.6817C224.539 28.6817 224.835 28.611 225.105 28.4696C225.388 28.3283 225.613 28.1291 225.78 27.872C225.947 27.6021 226.03 27.2744 226.03 26.8888V26.002L224.565 26.4454C224.102 26.5868 223.736 26.7732 223.466 27.0045C223.209 27.223 223.081 27.4736 223.081 27.7563C223.081 28.0391 223.183 28.264 223.389 28.4311C223.595 28.5982 223.871 28.6817 224.218 28.6817ZM230.669 33.1542C230.566 33.1542 230.489 33.1221 230.437 33.0578C230.386 33.0064 230.36 32.9357 230.36 32.8458V29.8577C230.36 29.6777 230.412 29.5428 230.514 29.4528C230.617 29.3629 230.759 29.3179 230.939 29.3179H231.016C231.427 29.3179 231.735 29.2151 231.941 29.0094C232.147 28.7909 232.25 28.4375 232.25 27.9491C232.25 27.8206 232.237 27.6792 232.211 27.525C232.198 27.3708 232.179 27.2166 232.153 27.0623L231.825 25.5394C231.787 25.2695 231.813 25.0767 231.903 24.961C231.992 24.8454 232.14 24.7682 232.346 24.7297L234.158 24.3441C234.621 24.2413 234.897 24.4341 234.987 24.9225L235.43 27.0623C235.495 27.3708 235.54 27.6792 235.565 27.9877C235.604 28.2961 235.623 28.5853 235.623 28.8552C235.623 30.1276 235.289 31.1622 234.621 31.959C233.965 32.7558 232.989 33.1542 231.69 33.1542H230.669ZM232.944 37.2026C232.854 37.2926 232.738 37.3312 232.597 37.3183C232.468 37.3183 232.359 37.2733 232.269 37.1834L231.189 36.1231C231.112 36.0331 231.074 35.9174 231.074 35.7761C231.074 35.6475 231.112 35.5319 231.189 35.429L232.269 34.3687C232.359 34.2659 232.468 34.2145 232.597 34.2145C232.725 34.2145 232.834 34.2659 232.924 34.3687L233.985 35.429C234.087 35.5319 234.139 35.6475 234.139 35.7761C234.152 35.9174 234.113 36.0395 234.023 36.1423L232.944 37.2026ZM247.946 37.5882C246.597 37.5882 245.388 37.3376 244.322 36.8363C243.255 36.3351 242.42 35.6025 241.816 34.6386C241.212 33.6747 240.909 32.5052 240.909 31.13C240.909 30.6288 240.98 30.0569 241.122 29.4143C241.276 28.7588 241.469 28.174 241.7 27.66C241.79 27.4158 241.886 27.2423 241.989 27.1394C242.105 27.0366 242.304 27.0238 242.587 27.1009L243.994 27.4479C244.251 27.525 244.418 27.6278 244.495 27.7563C244.572 27.8849 244.547 28.0841 244.418 28.354C244.264 28.7524 244.148 29.1187 244.071 29.4528C243.994 29.787 243.955 30.1276 243.955 30.4746C243.955 31.6441 244.347 32.518 245.131 33.0964C245.928 33.6876 247.021 33.9832 248.409 33.9832H249.026C250.002 33.9832 250.786 33.8932 251.378 33.7133C251.982 33.5462 252.431 33.2827 252.727 32.9229C253.035 32.5502 253.235 32.0554 253.325 31.4385C253.427 30.8087 253.472 30.044 253.46 29.1444L255.773 29.048C255.773 29.9862 255.709 30.8858 255.58 31.7469C255.464 32.5952 255.246 33.3727 254.925 34.0796C254.616 34.7993 254.186 35.4162 253.633 35.9303C253.093 36.4572 252.406 36.8621 251.57 37.1448C250.735 37.4404 249.726 37.5882 248.544 37.5882H247.946ZM253.093 29.2022C252.965 28.521 252.676 28.007 252.226 27.66C251.789 27.313 251.339 27.1394 250.876 27.1394C250.606 27.1394 250.369 27.1909 250.163 27.2937C249.97 27.3836 249.816 27.5122 249.7 27.6792C249.597 27.8335 249.546 28.0134 249.546 28.219C249.546 28.5275 249.681 28.7524 249.951 28.8938C250.221 29.0351 250.536 29.1058 250.896 29.1058C251.435 29.1058 251.962 29.0094 252.476 28.8166C252.99 28.611 253.363 28.3797 253.594 28.1226L253.826 30.8408C253.556 31.3035 253.1 31.6698 252.457 31.9397C251.814 32.1967 251.114 32.2996 250.356 32.2482C249.662 32.1967 249.058 32.004 248.544 31.6698C248.03 31.3357 247.631 30.8923 247.348 30.3396C247.078 29.787 246.944 29.1444 246.944 28.4118C246.944 27.8335 247.04 27.268 247.233 26.7153C247.425 26.1498 247.702 25.6486 248.062 25.2116C248.422 24.7747 248.871 24.4277 249.411 24.1706C249.951 23.9136 250.561 23.7851 251.243 23.7851C252.155 23.7851 252.945 24.0035 253.614 24.4405C254.295 24.8775 254.822 25.5008 255.195 26.3105C255.58 27.1202 255.773 28.0777 255.773 29.1829L253.093 29.2022ZM249.797 22.1464C249.72 22.2235 249.61 22.2685 249.469 22.2814C249.34 22.2814 249.225 22.23 249.122 22.1271L248.042 21.0476C247.965 20.9576 247.92 20.8484 247.907 20.7198C247.895 20.5913 247.94 20.4756 248.042 20.3728L249.122 19.2932C249.225 19.1904 249.34 19.1454 249.469 19.1583C249.597 19.1583 249.707 19.2033 249.797 19.2932L250.876 20.3728C250.979 20.4756 251.031 20.5977 251.031 20.7391C251.043 20.8676 250.998 20.9769 250.896 21.0668L249.797 22.1464ZM252.823 22.1464C252.721 22.2492 252.605 22.2942 252.476 22.2814C252.348 22.2685 252.239 22.2171 252.149 22.1271L251.05 21.0476C250.96 20.9576 250.915 20.8484 250.915 20.7198C250.915 20.5785 250.96 20.4628 251.05 20.3728L252.149 19.2932C252.239 19.2033 252.341 19.1583 252.457 19.1583C252.586 19.1454 252.701 19.1904 252.804 19.2932L253.884 20.3728C253.986 20.4756 254.038 20.5913 254.038 20.7198C254.051 20.8484 254.006 20.964 253.903 21.0668L252.823 22.1464ZM258.772 37.7617C258.258 37.7617 257.872 37.7103 257.615 37.6075C257.371 37.5047 257.249 37.2605 257.249 36.8749V34.9856C257.249 34.69 257.326 34.478 257.48 34.3495C257.647 34.2338 257.917 34.176 258.29 34.176H260.584C261.329 34.176 261.94 34.0731 262.415 33.8675C262.891 33.6747 263.244 33.3599 263.476 32.9229H261.779C260.905 32.9229 260.153 32.7622 259.524 32.4409C258.907 32.1068 258.431 31.657 258.097 31.0915C257.776 30.5131 257.615 29.8448 257.615 29.0865C257.615 28.5082 257.705 27.9491 257.885 27.4093C258.078 26.8567 258.354 26.3619 258.714 25.9249C259.074 25.488 259.524 25.1409 260.064 24.8839C260.603 24.6269 261.214 24.4983 261.895 24.4983C263.18 24.4983 264.215 24.9225 264.999 25.7707C265.796 26.6189 266.252 27.8013 266.367 29.3179H267.447C267.64 29.3179 267.736 29.4143 267.736 29.607L267.755 32.5759C267.755 32.9614 267.563 33.1542 267.177 33.1542H266.059C265.673 34.6708 265.005 35.8146 264.054 36.5857C263.116 37.3697 261.882 37.7617 260.353 37.7617H258.772ZM261.702 29.5492L263.591 29.5299C263.424 28.8745 263.142 28.3925 262.743 28.0841C262.358 27.7628 261.946 27.6021 261.509 27.6021C261.239 27.6021 261.002 27.6535 260.796 27.7563C260.603 27.8463 260.455 27.9748 260.353 28.1419C260.263 28.2961 260.218 28.4632 260.218 28.6431C260.218 28.9773 260.359 29.2151 260.642 29.3564C260.925 29.485 261.278 29.5492 261.702 29.5492ZM267.192 33.1542C267.089 33.1542 267.012 33.1221 266.96 33.0578C266.909 33.0064 266.883 32.9357 266.883 32.8458V29.8577C266.883 29.6777 266.935 29.5428 267.038 29.4528C267.14 29.3629 267.282 29.3179 267.462 29.3179H267.539C267.95 29.3179 268.258 29.2151 268.464 29.0094C268.67 28.7909 268.773 28.4375 268.773 27.9491C268.773 27.8206 268.76 27.6792 268.734 27.525C268.721 27.3708 268.702 27.2166 268.676 27.0623L268.348 25.5394C268.31 25.2695 268.336 25.0767 268.426 24.961C268.516 24.8454 268.663 24.7682 268.869 24.7297L270.681 24.3441C271.144 24.2413 271.42 24.4341 271.51 24.9225L271.953 27.0623C272.018 27.3708 272.063 27.6792 272.088 27.9877C272.127 28.2961 272.146 28.5853 272.146 28.8552C272.146 30.1276 271.812 31.1622 271.144 31.959C270.488 32.7558 269.512 33.1542 268.213 33.1542H267.192ZM270.083 20.2186C269.994 20.3086 269.884 20.3535 269.756 20.3535C269.64 20.3407 269.537 20.2893 269.447 20.1993L268.406 19.1776C268.213 18.9591 268.213 18.7535 268.406 18.5607L269.447 17.5197C269.653 17.314 269.859 17.314 270.064 17.5197L271.086 18.5607C271.304 18.792 271.317 19.0041 271.124 19.1969L270.083 20.2186ZM268.599 22.9946C268.522 23.0718 268.413 23.1167 268.271 23.1296C268.143 23.1296 268.027 23.0782 267.924 22.9754L266.845 21.8958C266.755 21.8058 266.71 21.6966 266.71 21.5681C266.71 21.4267 266.755 21.311 266.845 21.2211L267.924 20.1415C268.156 19.9101 268.381 19.9101 268.599 20.1415L269.679 21.2211C269.781 21.3239 269.833 21.446 269.833 21.5873C269.846 21.7159 269.801 21.8251 269.698 21.9151L268.599 22.9946ZM271.626 22.9946C271.523 23.0975 271.407 23.1424 271.279 23.1296C271.15 23.1167 271.041 23.0653 270.951 22.9754L269.852 21.8958C269.762 21.8058 269.717 21.6902 269.717 21.5488C269.717 21.4074 269.762 21.2982 269.852 21.2211L270.951 20.1415C271.182 19.9359 271.401 19.9359 271.606 20.1415L272.686 21.2211C272.776 21.311 272.827 21.4267 272.84 21.5681C272.853 21.6966 272.808 21.8123 272.705 21.9151L271.626 22.9946ZM275.038 37.7617C274.524 37.7617 274.138 37.7103 273.881 37.6075C273.637 37.5047 273.515 37.2605 273.515 36.8749V34.9856C273.515 34.69 273.592 34.478 273.746 34.3495C273.913 34.2338 274.183 34.176 274.556 34.176H276.85C277.595 34.176 278.206 34.0731 278.681 33.8675C279.157 33.6747 279.51 33.3599 279.742 32.9229H278.045C277.171 32.9229 276.419 32.7622 275.79 32.4409C275.173 32.1068 274.697 31.657 274.363 31.0915C274.042 30.5131 273.881 29.8448 273.881 29.0865C273.881 28.5082 273.971 27.9491 274.151 27.4093C274.344 26.8567 274.62 26.3619 274.98 25.9249C275.34 25.488 275.79 25.1409 276.329 24.8839C276.869 24.6269 277.48 24.4983 278.161 24.4983C279.446 24.4983 280.481 24.9225 281.265 25.7707C282.061 26.6189 282.518 27.8013 282.633 29.3179H283.713C283.906 29.3179 284.002 29.4143 284.002 29.607L284.021 32.5759C284.021 32.9614 283.829 33.1542 283.443 33.1542H282.325C281.939 34.6708 281.271 35.8146 280.32 36.5857C279.382 37.3697 278.148 37.7617 276.619 37.7617H275.038ZM277.968 29.5492L279.857 29.5299C279.69 28.8745 279.408 28.3925 279.009 28.0841C278.624 27.7628 278.212 27.6021 277.775 27.6021C277.505 27.6021 277.268 27.6535 277.062 27.7563C276.869 27.8463 276.721 27.9748 276.619 28.1419C276.529 28.2961 276.484 28.4632 276.484 28.6431C276.484 28.9773 276.625 29.2151 276.908 29.3564C277.191 29.485 277.544 29.5492 277.968 29.5492ZM290.089 33.1542C289.717 33.1414 289.382 33.1092 289.087 33.0578C288.804 33.0193 288.515 32.955 288.219 32.8651C287.937 32.7751 287.628 32.6594 287.294 32.518C286.96 32.3638 286.574 32.1775 286.137 31.959C285.88 32.2289 285.598 32.4538 285.289 32.6337C284.993 32.8136 284.685 32.9422 284.364 33.0193C284.055 33.1092 283.747 33.1542 283.438 33.1542C283.246 33.1542 283.149 33.0578 283.149 32.8651V29.8962C283.149 29.5107 283.342 29.3179 283.728 29.3179C283.972 29.3179 284.184 29.2857 284.364 29.2215C284.544 29.1572 284.73 29.0159 284.923 28.7974C285.116 28.566 285.347 28.2254 285.617 27.7756C286.092 26.9402 286.574 26.2912 287.063 25.8285C287.551 25.3659 288.052 25.0381 288.566 24.8454C289.08 24.6526 289.601 24.5562 290.128 24.5562C290.848 24.5562 291.503 24.7233 292.094 25.0574C292.698 25.3916 293.18 25.8928 293.54 26.5611C293.913 27.2166 294.099 28.0262 294.099 28.9901C294.099 29.5299 294.016 30.0504 293.849 30.5517C293.681 31.0529 293.431 31.5092 293.097 31.9204C292.775 32.3188 292.364 32.6337 291.863 32.8651C291.362 33.0835 290.77 33.1799 290.089 33.1542ZM290.128 29.9155C290.423 29.9284 290.661 29.8448 290.841 29.6649C291.021 29.485 291.118 29.2279 291.13 28.8938C291.13 28.6367 291.073 28.4118 290.957 28.219C290.854 28.0134 290.706 27.8527 290.513 27.7371C290.321 27.6214 290.102 27.5636 289.858 27.5636C289.627 27.5636 289.402 27.6214 289.183 27.7371C288.965 27.8399 288.746 28.0134 288.528 28.2576C288.322 28.4889 288.097 28.7974 287.853 29.1829C288.239 29.3757 288.554 29.5235 288.798 29.6263C289.055 29.7291 289.286 29.7998 289.492 29.8384C289.697 29.8769 289.909 29.9026 290.128 29.9155Z" fill="white"/>
<circle cx="340.5" cy="26.5" r="21.5" fill="white"/>
<path d="M338.397 34.8365C337.605 35.5855 336.537 36.0038 335.425 36C334.313 35.9962 333.248 35.5707 332.462 34.8163L327.853 30.3973C326.695 29.2875 326.716 27.4916 327.916 26.4221C329.052 25.3729 330.862 25.4132 331.957 26.4625L335.429 29.7919L348.962 16.8172C350.099 15.7276 351.93 15.7276 353.066 16.8172L353.15 16.8979C354.287 17.9876 354.287 19.7633 353.129 20.8529L338.397 34.8365Z" fill="#1C54B3"/>
</svg>
