<svg width="661" height="163" viewBox="0 0 661 163" fill="none" xmlns="http://www.w3.org/2000/svg">
<g clip-path="url(#clip0_132_1192)">
<path d="M22.8066 1.27808H45.7068L68.2428 65.0602H49.7385L46.8096 55.5855H21.5268L18.598 65.0602H0L22.8066 1.27808ZM42.8715 42.1885L34.1682 14.8511L25.3765 42.1885H42.8715Z" fill="white"/>
<path d="M116.337 42.0022H90.5031V65.0551H71.8167V1.27808H90.5031V25.7902H116.337V1.27808H134.93V65.0602H116.337V42.0074V42.0022Z" fill="white"/>
<path d="M162.866 26.6078H162.684L163.693 43.3735V65.0602H145.007L144.913 1.27808H165.249L184.851 39.9117L204.458 1.27808H224.7L224.606 65.0602H206.008V43.3735L207.017 26.6078H206.835L185.126 66.3332H184.575L162.866 26.6078Z" fill="white"/>
<path d="M234.683 1.27808H283.506V15.2185H253.369V27.1563H281.123V39.182H253.369V51.1199H283.506V65.0602H234.683V1.27808Z" fill="white"/>
<path d="M291.293 1.27808H320.79C344.33 1.27808 357.341 12.6674 357.341 33.1692C357.341 53.6709 344.335 65.0602 320.79 65.0602H291.293V1.27808ZM338.009 33.164C338.009 22.5923 332.516 17.5833 320.972 17.5833H309.98V48.7447H320.972C332.516 48.7447 338.009 43.7357 338.009 33.164Z" fill="white"/>
<path d="M387.842 1.27808H407.079L435.291 40.1859H435.473L434.74 24.243V1.27808H453.426V65.0602H434.282L405.977 26.1524H405.794L406.528 42.1005V65.0602H387.842V1.27808Z" fill="white"/>
<path d="M479.812 1.27808H502.712L525.248 65.0602H506.744L503.815 55.5855H478.532L475.603 65.0602H457.005L479.812 1.27808ZM499.871 42.1885L491.168 14.8511L482.376 42.1885H499.871Z" fill="white"/>
<path d="M524.967 34.8975C524.967 12.4811 538.524 0 562.891 0C570.767 0 578.461 1.00387 587.898 3.36867V19.679C578.097 17.2211 570.492 16.3052 563.531 16.3052C550.25 16.3052 544.293 22.2301 544.293 33.8885C544.293 44.8224 548.783 50.0177 557.117 50.0177C565.451 50.0177 571.225 43.8237 571.771 32.3413H589.542V65.0499L575.163 65.1431L573.696 42.7267H573.514C572.505 58.0332 564.629 66.3281 550.614 66.3281C534.586 66.3281 524.967 54.4834 524.967 34.8923V34.8975Z" fill="white"/>
<path d="M617.119 37.904L591.743 1.27295H611.896L626.738 23.1408L641.486 1.27295H661L635.717 37.8108V65.0551H617.124V37.904H617.119Z" fill="white"/>
<path d="M81.727 88.4288C84.8275 86.2865 87.8396 84.0097 90.4719 81.35C93.1146 78.7109 95.362 75.6683 97.4377 72.5842C97.9423 71.808 98.4261 71.0163 98.8475 70.209C99.2845 69.2621 99.8879 68.3255 99.7423 67.451C99.7267 67.4148 99.7215 67.3785 99.6955 67.3734C99.6955 67.3475 99.6486 67.3475 99.633 67.3216C99.1648 67.0991 98.1036 67.3992 97.5573 67.6528C93.8534 69.3449 90.8569 72.3979 88.6407 75.8131C85.7951 80.2271 84.2188 85.9812 85.8627 91.0575C86.9916 94.9074 90.8725 94.1623 93.9782 93.4171C99.3625 92.1235 104.591 89.8674 109.574 87.4715C113.799 85.4379 117.908 83.2749 121.81 80.7394C122.466 80.3099 123.324 79.751 123.896 79.218C125.134 78.1158 126.164 76.7342 126.898 75.2698C130.097 68.4445 133.645 61.6709 137.474 55.1096C145.839 40.869 164.562 12.1241 182.551 11.2082C187.811 11.1254 190.584 15.3789 189.07 20.3466C185.407 31.2753 170.326 46.2765 161.883 54.5093C152.144 63.6994 142.14 72.5894 131.106 80.2529L130.061 80.9463C128.62 82.0278 128.198 83.8338 127.6 85.6138C126.56 89.0963 124.203 96.5478 126.591 99.4093C130.675 102.405 143.347 94.2554 147.296 91.7561C153.601 87.694 159.646 83.1611 165.628 78.535C165.764 78.4315 165.956 78.4522 166.06 78.5867C166.159 78.7109 166.143 78.8817 166.034 78.9903C160.645 84.3202 154.964 89.3602 148.909 94.0226C143.436 98.0277 137.734 102.312 130.966 103.999C123.085 105.759 120.114 99.8595 120.869 92.9256C121.118 89.9036 121.763 87.0058 122.533 84.1546C123.204 81.3448 124.37 78.0744 127.023 76.3047C127.226 76.1547 127.709 75.8183 127.918 75.6734C135.398 70.178 142.349 63.8495 149.241 57.6141C157.487 50.0591 165.675 42.2507 173.104 33.9558C175.991 30.6958 184.523 20.9468 183.977 17.0141C183.956 16.9727 183.93 16.9572 183.935 16.9055C183.909 16.8899 183.893 16.8796 183.893 16.8382C183.847 16.8278 183.831 16.802 183.8 16.7606C183.014 16.2586 181.298 16.476 180.278 16.6778C164.401 21.0969 149.387 43.5236 140.881 57.1225C136.975 63.5183 133.38 70.0538 130.04 76.8222C129.046 78.7057 127.741 80.372 126.133 81.7588C124.645 83.0162 122.799 84.0304 121.123 85.0239C116.972 87.4094 112.613 89.4741 108.248 91.3887C103.79 93.2464 99.2845 94.9592 94.5348 95.9579C91.7204 96.5529 87.6471 97.2256 85.2853 94.6849C83.1004 92.2373 82.861 88.8014 83.0379 85.7691C83.5217 79.839 86.5702 74.3798 90.8309 70.3229C92.4748 68.6515 99.4561 63.3372 101.116 66.9904C101.386 67.8908 101.032 68.8015 100.705 69.5467C100.101 70.8714 99.3261 72.1185 98.4989 73.3086C96.2672 76.4186 93.9158 79.4095 91.1274 82.033C88.3546 84.6669 85.2385 86.8816 82.0599 88.9411C81.9195 89.0342 81.727 88.9929 81.6385 88.8531C81.5501 88.7134 81.5865 88.5323 81.7218 88.4392L81.727 88.4288Z" fill="#EF8A1B"/>
<path d="M184.736 95.487C195.598 91.725 206.825 79.0628 212.266 69.1741C212.901 67.927 213.499 66.6334 213.791 65.3863C213.884 64.9465 214.004 64.2893 213.848 63.9426C213.796 63.865 213.848 63.9322 213.77 63.8908C213.692 63.8598 213.437 63.8753 213.192 63.9064C211.268 64.3359 209.478 65.6088 207.766 66.6541C203.589 69.3138 200.156 72.9981 196.842 76.6514C193.554 80.4444 186.427 88.879 186.437 93.7069C186.521 93.9708 186.484 94.007 186.687 94.1209C186.859 94.2244 187.348 94.3175 187.889 94.302C189.632 94.2658 191.827 93.5724 193.585 92.9307C204.744 88.4443 214.722 81.1016 222.437 71.9787C227.946 65.3811 233.153 58.354 238.205 51.3476C242.268 45.6452 246.622 39.6892 250.045 33.6401C250.248 33.2572 250.425 32.8743 250.524 32.5897C250.451 32.895 250.472 33.2365 250.544 33.5987C250.846 35.1614 252.75 36.2843 254.243 35.7255C254.311 35.7048 254.389 35.6634 254.373 35.6737C254.394 35.6582 254.306 35.71 254.228 35.7669C254.144 35.8238 254.04 35.8962 253.931 35.9842C249.738 39.4978 245.946 43.9014 242.262 48.0152C238.449 52.3153 234.776 56.7447 231.255 61.288C227.701 65.7951 224.315 70.4005 221.266 75.2387C218.92 78.8661 217.11 82.7833 215.039 86.5763C211.699 92.5581 207.751 99.5232 211.403 106.286C211.481 106.436 211.418 106.618 211.268 106.695C211.127 106.768 210.955 106.716 210.872 106.586L210.269 105.645C205.316 97.7069 210.883 88.8117 213.791 81.1947C217.026 72.9464 221.865 65.2932 226.905 58.1005C231.998 50.8767 237.45 43.9376 243.407 37.3865C245.561 35.0787 247.485 33.0088 250.055 30.9493C250.643 30.4888 251.658 29.8006 252.584 29.6143C254.368 29.1434 256.423 30.3801 256.751 32.186C257.011 33.3089 256.667 34.4111 256.236 35.384C255.393 37.2313 254.274 38.9234 253.239 40.5223C250.029 45.3709 246.388 50.173 242.803 54.7473C229.626 71.6631 217.854 87.6061 197.066 95.7561C193.679 97.0549 188.404 99.1351 184.851 97.2877C181.844 95.5542 182.749 91.5129 183.982 89.0342C187.93 80.8428 198.668 69.1172 206.497 64.4549C207.772 63.7149 209.067 62.9335 210.461 62.3385C211.663 61.8572 213 61.3139 214.441 61.702C216.257 62.2091 216.387 64.46 215.908 65.8934C215.013 68.8999 213.38 71.3474 211.673 73.8726C205.223 82.7471 195.614 92.7186 184.918 96.051C184.757 96.0976 184.585 96.0044 184.539 95.844C184.492 95.6836 184.585 95.518 184.741 95.4714L184.736 95.487Z" fill="#EF8A1B"/>
<path d="M246.502 71.2751C240.525 69.5106 236.488 76.7291 233.949 80.9827C232.888 82.8403 232.061 84.7032 231.442 86.7316C231.296 87.2129 231.041 88.1961 230.948 88.6876C230.677 90.3021 230.412 91.9683 231.322 93.0447C232.305 93.6397 233.471 93.2568 234.844 92.6566C239.354 90.2866 242.855 86.09 245.816 82.0072C247.902 79.1353 250.409 73.7227 246.502 71.2803V71.2751ZM246.721 70.7111C249.905 72.0668 250.794 75.865 251.023 79.0163C251.424 85.8209 247.075 92.0977 241.42 95.5699C231.613 101.65 222.692 97.2102 227.868 85.4121C230.037 80.4497 233.497 75.9736 238.049 72.9827C240.598 71.3372 243.61 69.8521 246.721 70.7111Z" fill="#EF8A1B"/>
<path d="M251.897 108.015C256.886 92.822 265.366 78.9075 274.818 66.0538C278.917 60.3928 284.619 52.1858 289.259 47.0733C294.566 41.0967 299.862 35.2545 305.797 29.8109C306.021 29.5935 306.437 29.8678 306.297 30.1627C304.7 33.8936 302.785 37.4382 300.715 40.8742C296.563 47.6995 291.866 54.1832 286.544 60.1185C283.891 63.0732 281.222 66.002 278.688 69.0344C271.114 78.0485 263.878 87.5336 257.942 97.7172L255.112 102.918L252.474 108.237C252.402 108.392 252.214 108.454 252.063 108.382C251.923 108.315 251.861 108.154 251.907 108.015H251.897Z" fill="#EF8A1B"/>
<path d="M540.184 86.5866C530.148 93.6758 519.052 99.1971 507.576 103.559C496.225 107.927 485.586 114.41 476.748 122.731C472.503 127.093 468.221 131.481 464.434 136.221C460.652 140.951 457.343 146.1 455.34 151.761C452.562 159.155 454.758 162.586 462.915 160.982C472.326 159.611 478.511 152.599 483.719 145.236C496.298 127.932 505.864 108.791 516.279 90.1467C518.527 86.1416 520.8 82.1468 523.172 78.2089C524.338 76.2633 525.498 74.4056 526.32 72.3668C526.377 72.2116 526.429 72.0667 526.465 71.9373C526.502 71.8235 526.512 71.6889 526.507 71.751C526.507 71.7769 526.507 71.8442 526.543 71.9684C526.58 72.0977 526.689 72.3306 526.939 72.5117C527.303 72.7445 527.537 72.7497 527.792 72.6928C527.854 72.6721 527.818 72.6825 527.781 72.7032C527.469 72.8843 527.157 73.1378 526.819 73.4069C521.258 78.0951 516.019 83.1766 510.151 87.5336C505.464 91.0057 493.998 99.2023 490.102 90.8246C489.15 88.2063 489.925 85.293 491.111 83.0161C494.461 76.2477 501.822 73.3448 506.151 67.5492C506.151 67.5544 506.135 67.5285 506.099 67.7821C506.099 67.9063 506.047 68.1805 506.286 68.6049C506.562 69.0809 507.035 69.2569 507.253 69.2879C507.654 69.3345 507.654 69.2776 507.675 69.2879L507.607 69.3138C503.695 71.4561 500.662 74.6643 497.036 77.469C490.726 82.2865 483.646 85.6034 476.316 88.3356C472.086 89.9553 467.477 91.1299 463.461 92.9669C460.943 94.1467 458.472 95.5852 456.724 97.8C455.715 99.1764 454.685 100.651 455.382 102.043C457.073 104.33 461.12 101.619 462.785 100.273C465.1 98.2967 468.429 94.3744 466.244 91.4611C465.36 90.302 464.117 89.4896 462.728 88.2891C460.069 86.095 458.181 82.835 457.583 79.4508C456.069 70.6851 460.506 61.7744 467.41 56.4911C472.066 53.0138 483.708 51.2182 488.551 54.6593C490.981 56.4859 490.45 59.5959 488.733 61.5519C482.912 67.9787 476.05 73.3034 468.882 78.0899C463.695 81.5 458.295 84.6513 452.651 87.2697C444.416 91.1506 430.749 99.5076 421.51 98.6641C416.397 98.0484 414.534 93.474 415.876 88.9152C416.844 85.1222 419.128 82.0019 421.578 79.1248C424.772 75.7924 429.262 71.3422 434.199 71.1922C436.768 71.1922 438.459 73.3655 438.105 75.6941C437.908 77.8881 436.061 80.8273 435.213 81.8518C431.291 87.5284 425.922 91.6784 419.778 94.5762C416.537 95.994 412.921 97.2722 409.134 96.646C405.701 96.1389 403.417 93.0652 403.563 89.6914C403.693 84.3253 406.798 79.8855 409.035 75.3836C408.65 77.0188 410.424 78.804 412.276 78.0847C412.308 78.0744 412.344 78.0537 412.365 78.0433L412.536 77.9347C411.787 78.4573 410.274 79.8338 409.498 80.5013C404.072 85.3137 398.163 89.7069 392.113 93.7586C390.209 94.985 388.403 96.2321 386.322 97.2929C385.272 97.8052 383.914 98.3744 382.577 97.9035C381.479 97.5619 380.616 96.3821 380.579 95.311C380.543 94.8763 380.59 94.421 380.761 94.0329C382.374 90.0846 384.268 86.5297 386.057 82.9385C388.086 78.6384 394.698 66.7472 392.388 62.7731C392.43 62.8093 392.482 62.8145 392.388 62.799C392.206 62.7679 391.566 62.8766 390.958 63.1664C390.177 63.5544 389.444 64.0253 388.705 64.4911C384.601 67.1146 380.824 70.1935 377.109 73.4276C371.215 78.6488 365.571 84.2943 360.499 90.2968C358.194 93.0807 355.577 96.32 354.121 99.4352L353.71 96.3252C352.877 95.1868 351.057 94.8453 349.928 95.549C349.766 95.6473 349.772 95.6525 349.751 95.6629L349.87 95.5542L350.094 95.3317L350.183 95.2386L350.318 95.0781C355.957 88.5064 360.608 81.2309 365.155 73.8364C370.055 65.8572 374.753 57.6399 380.267 49.7486C381.266 48.3049 383.253 47.9478 384.699 48.9465C386.042 49.8728 386.437 51.658 385.677 53.05C383.623 56.8068 381.521 60.4445 379.336 64.0874C377.151 67.72 374.888 71.3164 372.49 74.8506C368.833 80.1442 364.837 85.7639 359.599 89.8207C353.528 94.4572 345.849 99.223 337.994 99.6732C331.023 99.9578 327.438 94.5658 328.021 88.0458C328.364 83.9683 329.962 80.1701 331.803 76.6565C331.881 76.4961 331.944 76.3461 331.98 76.2374C332.016 76.1391 332.022 76.0459 332.006 76.2167C331.933 77.5673 333.431 78.804 334.664 78.5919C334.831 78.5712 334.914 78.5349 334.867 78.5505C333.915 79.0369 333 79.8648 332.178 80.6358C328.38 84.2684 324.582 88.0355 320.655 91.5542C317.336 94.4831 314.256 97.2773 310.417 99.7405C309.553 100.273 308.565 100.812 307.42 101.086C307.155 101.143 306.843 101.2 306.422 101.2C305.854 101.2 305.371 101.101 304.809 100.837C303.675 100.273 302.993 99.135 302.91 97.9604C302.572 93.2567 310.895 82.0071 313.668 77.7639C323.381 63.9167 333.666 50.6076 344.71 37.7798C345.532 36.8069 346.999 36.6931 347.966 37.5262C348.887 38.3179 349.017 39.6892 348.284 40.6413C338.597 53.3398 322.58 73.5673 313.439 86.3796C309.064 91.9371 301.391 94.4261 294.571 93.0445C287.73 91.7716 282.221 86.6591 279.131 80.6565C276.498 74.4263 272.94 70.6592 265.698 72.729C264.528 73.0809 263.404 73.5156 262.447 74.1262C259.955 75.8493 259.029 78.0123 263.196 78.6746C270.422 79.5698 282.486 72.6462 289.488 69.7795C291.715 68.905 300.439 64.5273 298.639 70.3953C298.587 70.5557 298.415 70.6437 298.254 70.5971C298.093 70.5453 298.004 70.3798 298.051 70.2193C298.925 67.5596 296.86 67.958 295.091 68.4962C287.402 70.654 264.065 86.7211 258.618 77.8933C258.343 77.1895 258.369 76.4496 258.556 75.8286C260.117 71.8079 265.204 70.2607 269.116 69.9554C275.468 69.5725 279.099 74.2141 281.472 79.4146C283.22 82.5452 285.675 85.412 288.64 87.399C294.441 91.4093 302.879 91.1558 308.279 86.6746C310.204 85.2205 311.431 83.0575 312.747 81.1119C314.23 78.9799 315.728 76.9256 317.237 74.8506C322.933 67.0421 338.644 45.9194 344.632 37.8832L348.206 40.7448C335.023 56.7809 322.169 73.4431 311.421 91.1972C310.256 93.2981 309.023 95.3524 308.456 97.4585C308.43 97.5723 308.45 97.6396 308.44 97.4585C308.435 97.4378 308.43 97.3084 308.404 97.2463C308.232 96.4908 307.4 95.7198 306.562 95.6836C306.463 95.6629 306.265 95.6836 306.219 95.6887C308.352 94.7263 310.219 93.0393 312.191 91.4559C316.951 87.4611 321.388 83.0782 325.836 78.7057C327.366 77.1895 329.093 75.4043 330.846 74.1624C331.814 73.5207 332.63 72.9774 333.915 72.7859C336.168 72.4185 338.139 74.359 337.911 76.5996C337.781 78.1934 337.104 79.2749 336.459 80.5996C334.784 84.2063 332.88 88.9825 334.831 92.5478C337.812 95.8699 347.644 90.4986 350.859 88.4339C354.209 86.2968 357.414 83.8492 359.926 81.0239C362.543 78.0847 364.941 74.7316 367.251 71.3319C371.85 64.5066 376.116 57.2984 380.09 50.0643L385.501 53.3657C375.211 68.1547 366.804 85.4741 354.927 99.1764C354.303 99.8646 353.705 100.517 352.81 100.972C351.629 101.624 349.746 101.308 348.887 100.123C348.149 99.2282 348.019 98.007 348.476 97.0134C349.506 94.7625 350.708 93.0238 351.951 91.3007C358.142 83.0265 365.462 75.7717 373.208 68.9774C377.109 65.6346 381.198 62.3643 385.61 59.5959C388.96 57.3035 393.783 55.42 396.909 59.2181C400.27 63.808 397.991 69.6812 396.285 74.2814C393.278 81.8001 388.913 88.7651 385.823 96.0303C385.849 95.7819 386.078 95.1195 386.01 94.8815C385.979 93.8155 384.897 92.7082 383.794 92.6771C383.472 92.6668 383.43 92.6926 383.352 92.703C385.35 91.8699 387.28 90.4572 389.179 89.2826C391.535 87.7612 393.84 86.1416 396.129 84.4702C399.562 81.945 402.85 79.4508 406.06 76.5996C407.241 75.6216 408.432 74.4522 409.795 73.557C410.065 73.4172 410.3 73.2879 410.617 73.1999C412.708 72.5634 414.612 74.4108 414.108 76.5013C413.499 78.566 412.261 80.1856 411.319 82.0226C409.972 84.7548 408.354 87.6526 408.744 90.6176C409.483 93.2463 415.887 90.954 417.739 90.0743C422.983 87.6836 427.982 83.8389 431.207 79.1611C432.112 77.9761 433.075 76.522 433.34 75.1663C433.371 75.0265 433.293 75.0628 433.439 75.3681C433.553 75.6165 433.871 75.9011 434.11 75.9476C432.898 75.9942 431.707 76.7911 430.651 77.3862C426.478 80.227 421.781 85.1377 420.387 90.0432C419.903 91.844 419.757 93.919 422.145 94.1415C429.917 94.6745 443.354 86.7677 450.747 83.337C461.63 78.2503 471.925 71.5958 480.852 63.601C482.428 62.1677 484.145 60.5273 485.524 58.9904C485.893 58.5506 486.122 58.0745 486.127 57.9452C486.138 57.8779 486.132 57.94 486.148 57.9659C482.98 55.7253 473.866 57.1793 470.562 59.1457C464.345 63.2595 460.121 71.3215 461.349 78.7419C461.812 81.381 463.154 83.7199 465.199 85.4482C467.847 87.575 471.275 90.2347 470.64 94.3226C469.834 100.154 463.175 106.116 457.354 106.509C454.779 106.643 452.188 104.858 451.694 102.26C451.22 99.7612 452.516 97.4171 453.977 95.5956C459.19 89.2981 467.925 87.9165 475.14 85.1636C479.396 83.6216 483.562 81.8467 487.527 79.6992C490.149 78.2814 492.724 76.6824 495.044 74.9127C498.68 72.1288 502.098 68.5945 506.359 66.416C506.515 66.3487 506.64 66.3022 506.832 66.2504C506.931 66.2245 507.035 66.1987 507.186 66.178C507.331 66.1624 507.529 66.1366 507.82 66.1883C508.138 66.2349 508.7 66.4574 509.027 67.0163C509.308 67.5234 509.272 67.9011 509.256 68.1185C509.194 68.5583 509.1 68.7135 509.022 68.8946C508.367 70.1986 507.394 70.9852 506.494 71.9528C502.384 76.1701 496.526 79.1145 493.806 84.3926C492.796 86.3641 491.86 89.4637 493.743 90.985C495.907 92.3149 498.737 91.0264 500.938 90.0432C508.97 85.9191 515.676 79.4871 522.512 73.6294L524.28 72.1236L525.196 71.3785C525.711 70.9593 526.356 70.4418 527.084 70.2038C527.204 70.1676 527.36 70.1314 527.589 70.1314C527.797 70.1314 528.166 70.1779 528.489 70.416C529.004 70.7782 529.082 71.2491 529.118 71.6889C529.134 72.3978 528.921 72.7238 528.754 73.2827C527.875 75.5026 526.543 77.5311 525.357 79.5078C522.969 83.4042 520.675 87.3576 518.407 91.3266C508.601 108.553 499.434 126.348 487.969 142.617C485.331 146.26 482.522 150.26 479.422 153.546C477.294 155.818 474.896 157.913 472.138 159.502C468.695 161.51 464.803 162.56 460.87 162.907C455.902 163.502 452.053 161.215 452.724 155.844C455.538 141.929 466.421 131.668 475.92 121.867C480.457 117.655 485.409 113.971 490.679 110.773C501.089 104.139 513.22 101.138 524.093 95.4145C529.545 92.6564 534.856 89.5982 539.856 86.0898C539.991 85.9915 540.184 86.0226 540.282 86.1623C540.381 86.2968 540.345 86.4883 540.21 86.5866H540.184Z" fill="#EF8A1B"/>
</g>
<defs>
<clipPath id="clip0_132_1192">
<rect width="661" height="163" fill="white"/>
</clipPath>
</defs>
</svg>
