<svg width="253" height="48" viewBox="0 0 253 48" fill="none" xmlns="http://www.w3.org/2000/svg">
<path d="M73.4431 17.432C72.9932 16.4157 72.3802 15.5117 71.6041 14.7212C70.829 13.9306 69.941 13.3155 68.9527 12.8758C67.9644 12.4361 66.9261 12.2232 65.8387 12.2232C64.5625 12.2232 63.4122 12.4361 62.3867 12.8758C60.311 13.7915 58.7971 15.3106 57.8344 17.4437C57.3718 18.4975 57.134 19.6026 57.134 20.7451V33.484C57.134 34.388 56.8089 35.1785 56.1457 35.8311C55.4954 36.4965 54.7076 36.8228 53.8067 36.8228C52.9059 36.8228 52.4432 36.4216 52.4432 35.63V29.4424H52.4059V18.0589C52.4059 16.3012 51.73 14.8955 50.392 13.829C49.0541 12.7496 47.5402 12.2104 45.8771 12.1719H43.9507C41.6245 12.1719 39.6234 13.0127 37.9593 14.6816C37.6085 15.0581 37.2834 15.4593 36.9966 15.8615V14.719L35.858 15.3844C35.5958 15.5599 35.4582 15.7984 35.4582 16.0873V33.483C35.4582 34.3869 35.1331 35.1775 34.4828 35.83C33.8196 36.4954 33.0318 36.8217 32.0936 36.8217H11.6065C10.6684 36.8217 10.2057 36.4452 10.2057 35.6792V18.4975L6.44133 20.6937C5.54048 21.2586 5.0778 22.0363 5.0778 23.028V33.4327C5.0778 35.7167 4.35285 37.4743 2.88911 38.7035C0.962681 40.26 0 42.1674 0 44.414C0 45.0922 0.200425 45.6314 0.57569 46.0208C0.950954 46.4219 1.42643 46.6102 1.97653 46.6102C2.52664 46.6102 3.00212 46.4219 3.4019 46.0208C3.78996 45.6314 3.98932 45.1542 3.98932 44.5905C3.98932 43.9507 3.72706 43.4233 3.20147 43.0093C2.8518 42.7462 2.45095 42.6199 2.01278 42.6199C1.83794 42.6199 1.65031 42.6445 1.44989 42.7077H1.36247C1.21215 42.7077 1.11193 42.6574 1.0501 42.5697C0.999994 42.4819 0.962681 42.3942 0.962681 42.3065L1.01279 42.131C1.71321 41.165 2.62578 40.4365 3.76437 39.9348C5.1407 39.1817 6.3038 38.1771 7.25369 36.9351C7.3038 36.8602 7.3667 36.7843 7.4168 36.7094C8.68012 37.638 10.081 38.0905 11.6065 38.0905H43.9507C45.9017 38.0905 47.6149 37.4882 49.1042 36.2836C49.1671 36.3467 49.2289 36.397 49.2918 36.4462C50.6426 37.5128 52.1436 38.0648 53.8067 38.0905C56.1084 38.0905 58.0839 37.2742 59.7108 35.63C60.4741 36.3703 61.3621 36.9608 62.3877 37.4123C63.4133 37.8637 64.489 38.0905 65.6276 38.0905C66.7662 38.0905 67.892 37.8776 68.9047 37.4379C69.9303 36.9982 70.8312 36.3831 71.6062 35.5926C72.3813 34.802 72.9943 33.898 73.4452 32.8689C73.8951 31.8398 74.1211 30.7475 74.1211 29.5676V20.6937C74.1211 19.5266 73.8962 18.4344 73.4452 17.4309L73.4431 17.432ZM47.278 33.484C47.278 34.388 46.9528 35.1785 46.3025 35.8311C45.6394 36.4965 44.8644 36.8228 43.9507 36.8228H38.0467C38.922 36.2334 39.5723 35.5048 40.0104 34.6265C40.3985 33.9237 40.5861 33.146 40.5861 32.2923V16.7923C40.5861 15.8883 40.9113 15.0977 41.5744 14.4452C42.2247 13.7798 43.0253 13.4535 43.9507 13.4535H45.8771C46.8153 13.4535 47.278 13.8429 47.278 14.6334V33.4851V33.484ZM68.9911 33.5215C68.9911 34.4372 68.6659 35.216 68.0156 35.8814C67.3525 36.534 66.5775 36.8602 65.6638 36.8602C64.7502 36.8602 63.9378 36.534 63.2875 35.8814C62.6244 35.216 62.2992 34.4383 62.2992 33.5215V16.7912C62.2992 15.8872 62.6244 15.1095 63.2875 14.4569C63.9378 13.8172 64.7385 13.4909 65.6638 13.4909C66.5892 13.4909 67.3525 13.8172 68.0156 14.4569C68.6659 15.1095 68.9911 15.8872 68.9911 16.7912V33.5215Z" fill="#1C54B3"/>
<path d="M101.86 7.64508L99.846 5.62427L97.8321 7.64508C97.7447 7.75848 97.669 7.8708 97.62 7.99597C97.5571 8.13397 97.5326 8.28481 97.5326 8.43565C97.5326 8.58649 97.5571 8.73732 97.62 8.87532C97.6701 9.00049 97.7447 9.11389 97.8321 9.22728L99.846 11.2481L101.86 9.22728C102.072 8.98872 102.172 8.72556 102.172 8.43671C102.172 8.14787 102.072 7.88471 101.86 7.64615V7.64508ZM97.62 7.99704C97.5699 7.87187 97.4953 7.75848 97.395 7.64615L95.3812 5.62534L93.3673 7.64615C93.1424 7.88471 93.0166 8.14787 93.0166 8.43671C93.0166 8.72556 93.1413 8.98872 93.3673 9.22728L95.3812 11.2481L97.395 9.22728C97.4953 9.11389 97.5699 9.00156 97.62 8.87532C97.6829 8.73732 97.7074 8.58649 97.7074 8.43565C97.7074 8.28481 97.6829 8.13397 97.62 7.99597V7.99704Z" fill="#1C54B3"/>
<path d="M135.418 17.6864C134.968 16.6701 134.355 15.7662 133.579 14.9756C132.804 14.185 131.916 13.5699 130.891 13.1185C129.865 12.6542 128.777 12.4285 127.601 12.4285C126.425 12.4285 125.375 12.667 124.323 13.1313C122.185 14.0973 120.684 15.6292 119.809 17.6993C119.346 18.7284 119.108 19.933 119.108 21.3012C119.108 22.3057 119.571 23.0835 120.472 23.6355C122.047 24.6272 122.835 25.9954 122.835 27.7145C122.835 28.5682 122.61 29.3834 122.172 30.175C122.085 30.3259 121.984 30.4008 121.871 30.4008H121.646C121.559 30.4008 121.496 30.3002 121.434 30.0873C121.234 29.3599 120.809 28.8571 120.158 28.5939C119.896 28.4805 119.621 28.4185 119.333 28.4185C118.958 28.4185 118.57 28.5319 118.194 28.7319C117.431 29.1716 117.056 29.7985 117.056 30.6147C117.056 31.0041 117.156 31.3807 117.357 31.7572C117.795 32.4975 118.445 32.8613 119.283 32.8613C119.634 32.8613 119.996 32.7607 120.383 32.5478C121.371 31.9701 122.259 31.079 123.047 29.9001C123.835 28.7073 124.236 27.3519 124.236 25.8339V17.0488C124.236 16.1449 124.561 15.3543 125.224 14.7017C125.875 14.0363 126.675 13.7101 127.601 13.7101C128.526 13.7101 129.289 14.0363 129.952 14.7017C130.603 15.3543 130.928 16.1449 130.928 17.0488V33.7417C130.928 34.6831 130.603 35.4737 129.952 36.1134C129.289 36.7531 128.514 37.0794 127.601 37.0794L120.909 37.0291L116.357 37.0794C115.456 37.0794 114.993 36.6782 114.993 35.8866V20.9514L111.19 23.1477C110.289 23.7371 109.827 24.5287 109.827 25.5194V33.7406C109.827 34.6446 109.514 35.4351 108.864 36.0877C108.227 36.7531 107.439 37.0794 106.501 37.0794C105.562 37.0794 105.1 36.6782 105.1 35.8866V18.3155C105.1 17.4372 104.912 16.6338 104.537 15.9052C103.836 14.5242 102.636 13.5207 100.947 12.8681C100.159 12.5793 99.3716 12.4285 98.5837 12.4285H96.6072C95.4441 12.4285 94.3556 12.6542 93.3556 13.1185C92.3428 13.5699 91.442 14.185 90.6541 14.9756C88.991 16.6445 88.1648 18.6407 88.1648 20.9493V29.8231C88.1648 32.1445 88.9899 34.1279 90.6541 35.7967C91.442 36.5873 92.3556 37.2153 93.3684 37.6667C94.394 38.1181 95.4697 38.3449 96.6082 38.3449C97.7468 38.3449 98.8726 38.1192 99.8982 37.6667C100.586 37.365 101.224 36.9885 101.799 36.5242C101.874 36.5991 101.949 36.6622 102.024 36.7253C103.375 37.8047 104.876 38.3439 106.502 38.3439C108.465 38.3439 110.191 37.7416 111.692 36.5242C111.755 36.5873 111.817 36.6493 111.893 36.6996C113.269 37.8036 114.757 38.3439 116.358 38.3439H127.602C128.778 38.3439 129.866 38.1182 130.892 37.6656C131.917 37.2131 132.805 36.5991 133.58 35.8203C134.355 35.0415 134.968 34.1514 135.419 33.1223C135.869 32.0932 136.095 31.0009 136.095 29.8209V20.9471C136.095 19.78 135.87 18.6877 135.419 17.6843L135.418 17.6864ZM99.9846 33.7385C99.9846 34.6424 99.6594 35.433 98.9963 36.0856C98.346 36.751 97.5453 37.0773 96.6072 37.0773C95.669 37.0773 94.9313 36.751 94.2682 36.0856C93.6179 35.433 93.2799 34.6424 93.2799 33.7385V17.0456C93.2799 16.1417 93.6179 15.3511 94.2682 14.6985C94.9185 14.046 95.7063 13.7069 96.6072 13.7069H98.5837C99.5091 13.7069 99.9846 14.0963 99.9846 14.8868V33.7385Z" fill="#1C54B3"/>
<path d="M112.979 41.9461C113.217 42.2093 113.329 42.4853 113.329 42.787C113.329 43.0886 113.216 43.339 112.979 43.5775L110.965 45.5983L108.951 43.5775C108.864 43.4524 108.788 43.339 108.739 43.2256C108.676 43.339 108.602 43.4513 108.514 43.5775L106.5 45.5983L104.487 43.5775C104.262 43.339 104.137 43.0758 104.137 42.787C104.137 42.4981 104.262 42.2093 104.487 41.9461L106.5 39.9756L108.514 41.9461C108.602 42.0713 108.677 42.1975 108.739 42.3473C108.789 42.1964 108.864 42.0713 108.951 41.9461L110.965 39.9756L112.979 41.9461Z" fill="#1C54B3"/>
<path d="M129.614 41.9964L127.6 39.9756L125.586 41.9964C125.361 42.2221 125.237 42.4864 125.237 42.787C125.237 43.0876 125.361 43.3518 125.586 43.615L127.6 45.5983L129.614 43.615C129.826 43.3518 129.926 43.0758 129.926 42.787C129.926 42.4981 129.826 42.2221 129.614 41.9964Z" fill="#1C54B3"/>
<path d="M139.097 46.2776C138.702 45.8829 138.505 45.348 138.505 44.674C138.505 42.4189 139.469 40.5158 141.395 38.9635C142.854 37.7333 143.584 35.9756 143.584 33.6917V19.4155C143.584 18.4206 144.036 17.6439 144.941 17.0876L148.749 14.8914V28.3331C148.749 29.9143 148.487 31.4676 147.961 32.9899C146.823 36.2998 144.925 38.7004 142.269 40.1938C141.161 40.6912 140.241 41.424 139.513 42.39L139.469 42.5655C139.469 42.6532 139.497 42.7409 139.555 42.8286C139.614 42.9164 139.715 42.9602 139.862 42.9602H139.95C140.153 42.9014 140.343 42.8725 140.519 42.8725C140.956 42.8725 141.351 43.0041 141.701 43.2673C142.227 43.677 142.489 44.2044 142.489 44.8495C142.489 45.4057 142.291 45.8818 141.897 46.2765C141.503 46.6713 141.029 46.8703 140.474 46.8703C139.949 46.8703 139.49 46.6724 139.095 46.2765L139.097 46.2776Z" fill="#1C54B3"/>
<path d="M154.921 6.23788C154.192 6.23788 153.513 6.05495 152.886 5.68909C152.258 5.32322 151.841 4.83219 151.637 4.21814C151.551 3.98386 151.506 3.7346 151.506 3.47143C151.506 3.09166 151.608 2.71082 151.813 2.32891C151.929 2.09463 152.133 1.97802 152.426 1.97802C152.513 1.97802 152.622 2.02188 152.754 2.1096C152.886 2.19733 152.98 2.315 153.038 2.46049V2.59207C153.038 3.00287 152.848 3.23715 152.469 3.29492C152.235 3.29492 152.047 3.23715 151.9 3.11948L151.813 3.07562H151.726C151.697 3.1045 151.682 3.14943 151.682 3.2072C151.711 3.5292 151.807 3.85228 151.967 4.17321C152.127 4.49521 152.339 4.75945 152.602 4.96377C153.039 5.25689 153.491 5.40346 153.959 5.40346C154.368 5.40346 154.717 5.30076 155.009 5.09536L155.272 4.96377C154.6 4.43637 154.265 3.77846 154.265 2.98789C154.265 2.37277 154.44 1.84537 154.791 1.40569C154.966 1.11364 155.213 0.894333 155.535 0.746704L155.711 0.615123C155.797 0.557355 155.929 0.48354 156.104 0.394749L156.806 0V1.27411C156.806 1.56723 156.681 1.79402 156.434 1.95449C156.185 2.11602 156.003 2.2337 155.887 2.30644C155.77 2.37919 155.682 2.43054 155.625 2.45942H155.581L155.975 2.24012L155.713 2.41556C155.596 2.4744 155.412 2.58459 155.166 2.74505C154.917 2.90659 154.794 3.17725 154.794 3.55809C154.794 4.02665 155.042 4.33474 155.538 4.4813L155.757 4.52516C155.933 4.52516 156.093 4.48131 156.24 4.39358L157.903 3.42757C159.158 2.69584 159.842 2.32891 159.959 2.32891C160.077 2.32891 160.587 2.59207 161.491 3.12054C160.091 3.96995 158.703 4.7894 157.333 5.57997C156.546 6.01965 155.742 6.23895 154.925 6.23895L154.921 6.23788ZM158.817 40.5008C158.467 40.5008 158.102 40.3981 157.723 40.1937C156.584 39.4909 155.659 38.5249 154.942 37.2946C154.228 36.0644 153.87 34.7903 153.87 33.4734V12.1687C153.87 11.1738 154.322 10.3822 155.227 9.79597L159.035 7.59971C159.035 14.687 159.02 21.7593 158.992 28.8166C158.992 29.9003 158.539 30.7208 157.635 31.2771C156.058 32.2431 155.271 33.5911 155.271 35.3177C155.271 36.1371 155.489 36.9726 155.927 37.822C156.014 37.9686 156.117 38.0413 156.234 38.0413H156.453C156.54 38.0413 156.613 37.9386 156.671 37.7332C156.905 37.0315 157.342 36.533 157.985 36.2398C158.247 36.1232 158.524 36.0644 158.816 36.0644C159.195 36.0644 159.574 36.1671 159.955 36.3714C160.684 36.8111 161.05 37.4412 161.05 38.2607C161.05 38.6404 160.948 39.0074 160.743 39.3593C160.306 40.1199 159.663 40.5008 158.816 40.5008H158.817Z" fill="#1C54B3"/>
<path d="M246.43 41.0338C245.7 41.0338 245.021 41.2168 244.395 41.5826C243.767 41.9485 243.35 42.4395 243.146 43.0536C243.06 43.2879 243.015 43.5371 243.015 43.8003C243.015 44.1801 243.116 44.5609 243.322 44.9428C243.438 45.1771 243.642 45.2937 243.935 45.2937C244.021 45.2937 244.131 45.2498 244.262 45.1621C244.395 45.0744 244.488 44.9567 244.547 44.8112L244.547 44.6797C244.547 44.2689 244.357 44.0346 243.978 43.9768C243.744 43.9768 243.556 44.0346 243.408 44.1523L243.322 44.1961L243.235 44.1961C243.206 44.1672 243.191 44.1223 243.191 44.0645C243.22 43.7425 243.316 43.4195 243.476 43.0985C243.635 42.7765 243.848 42.5123 244.111 42.308C244.548 42.0148 245 41.8683 245.468 41.8683C245.876 41.8683 246.226 41.971 246.518 42.1764L246.78 42.308C246.109 42.8354 245.774 43.4933 245.774 44.2838C245.774 44.899 245.949 45.4264 246.3 45.866C246.474 46.1581 246.722 46.3774 247.044 46.525L247.22 46.6566C247.306 46.7144 247.438 46.7882 247.613 46.877L248.315 47.2717L248.315 45.9976C248.315 45.7045 248.19 45.4777 247.942 45.3172C247.694 45.1557 247.512 45.038 247.396 44.9653C247.351 44.9378 247.311 44.9134 247.275 44.8921L247.222 44.8562C247.105 44.7973 246.921 44.6871 246.675 44.5267C246.425 44.3651 246.303 44.0945 246.303 43.7136C246.303 43.2451 246.551 42.937 247.047 42.7904L247.266 42.7466C247.441 42.7466 247.601 42.7904 247.748 42.8781L249.412 43.8442C250.666 44.5759 251.351 44.9428 251.468 44.9428C251.585 44.9428 252.096 44.6797 253 44.1512C251.6 43.3018 250.212 42.4823 248.842 41.6918C248.054 41.2521 247.251 41.0328 246.434 41.0328L246.43 41.0338Z" fill="#1C54B3"/>
<path d="M206.139 14.6863L204.126 12.6655L202.112 14.6863C201.999 14.7997 201.911 14.912 201.874 15.0372C201.799 15.1752 201.761 15.326 201.761 15.4769C201.761 15.6405 201.798 15.7903 201.874 15.9283C201.924 16.0417 201.999 16.154 202.112 16.2674L204.126 18.2882L206.139 16.2674C206.34 16.0289 206.44 15.7657 206.44 15.4769C206.44 15.188 206.34 14.9249 206.139 14.6863ZM203.863 9.06354L201.849 7.04272L199.873 9.06354C199.648 9.3021 199.523 9.56526 199.523 9.8541C199.523 10.1429 199.648 10.4061 199.873 10.6447L201.849 12.6655L203.863 10.6447C204.088 10.4061 204.214 10.1429 204.214 9.8541C204.214 9.56526 204.089 9.3021 203.863 9.06354ZM201.875 15.0383C201.825 14.9131 201.737 14.7997 201.624 14.6874L199.611 12.6666L197.597 14.6874C197.396 14.9259 197.296 15.1891 197.296 15.4779C197.296 15.7668 197.396 16.0299 197.597 16.2685L199.611 18.2893L201.624 16.2685C201.737 16.1551 201.812 16.0428 201.875 15.9294C201.938 15.7914 201.975 15.6405 201.975 15.4779C201.975 15.3271 201.938 15.1763 201.875 15.0383Z" fill="#1C54B3"/>
<path d="M251.88 37.2151C251.88 37.6045 251.78 37.9683 251.579 38.3192C251.141 39.0851 250.504 39.4617 249.653 39.4617C249.303 39.4617 248.94 39.3611 248.553 39.1482C247.414 38.4454 246.489 37.4794 245.777 36.2491C245.063 35.0189 244.701 33.7512 244.701 32.4332V11.1222C244.701 10.1305 245.151 9.3399 246.064 8.75046L249.866 6.5542C249.866 13.6458 249.853 20.7245 249.829 27.7775C249.829 28.857 249.379 29.685 248.465 30.238C246.89 31.2041 246.102 32.5477 246.102 34.2797C246.102 35.0959 246.327 35.9368 246.765 36.7776C246.852 36.9284 246.953 37.0033 247.066 37.0033H247.29C247.378 37.0033 247.454 36.9028 247.503 36.6899C247.74 35.987 248.179 35.4981 248.816 35.1965C249.078 35.0831 249.366 35.021 249.654 35.021C250.029 35.021 250.417 35.1344 250.793 35.3345C251.518 35.7741 251.881 36.401 251.881 37.2173L251.88 37.2151Z" fill="#1C54B3"/>
<path d="M235.77 19.8708L239.585 17.6746V28.8324C239.585 31.1163 238.747 33.0997 237.071 34.7814C235.382 36.4631 233.394 37.3039 231.092 37.3039H215.72C214.057 37.3039 212.556 36.7637 211.192 35.6854C211.118 35.6222 211.055 35.572 210.98 35.4971C210.417 35.9485 209.78 36.3251 209.091 36.6268C208.053 37.0782 206.965 37.305 205.827 37.305C204.226 37.305 202.737 36.7776 201.362 35.7239L201.1 35.511C199.499 36.7156 197.773 37.3061 195.935 37.3061C195.472 37.3061 195.022 37.2686 194.584 37.1809V37.2184C194.584 39.5398 193.733 41.5734 192.044 43.3311C190.318 44.9999 188.342 45.829 186.091 45.829C183.841 45.829 181.814 45.001 180.088 43.3311C178.425 41.5991 177.599 39.6286 177.599 37.3949V31.5089C177.599 30.5173 178.049 29.7267 178.95 29.1372C180.525 28.1712 181.313 26.8404 181.313 25.1459C181.313 24.2676 181.101 23.4139 180.663 22.5977C180.575 22.4468 180.475 22.372 180.35 22.372C180.126 22.372 179.975 22.4854 179.912 22.6854C179.687 23.4129 179.249 23.9157 178.599 24.1788C178.311 24.3297 178.023 24.3917 177.724 24.3917C177.373 24.3917 177.01 24.2911 176.635 24.09C175.897 23.6257 175.535 22.9732 175.535 22.1569C175.535 21.805 175.635 21.4413 175.847 21.0529C176.285 20.2998 176.923 19.9104 177.774 19.9104C178.123 19.9104 178.487 20.0238 178.862 20.2238C179.863 20.8133 180.751 21.7044 181.539 22.8972C182.327 24.1018 182.715 25.4454 182.715 26.9389V41.2589C182.715 42.1746 183.053 42.9534 183.703 43.6188C184.366 44.2714 185.154 44.5977 186.092 44.5977C187.031 44.5977 187.781 44.2714 188.431 43.6188C189.095 42.9534 189.42 42.1757 189.42 41.2589V22.2821C189.42 21.2904 189.87 20.4998 190.77 19.9104L194.585 17.7141V34.8959C194.585 35.6864 195.035 36.0758 195.936 36.0758C196.836 36.0758 197.674 35.7496 198.325 35.097C198.988 34.4316 199.313 33.6539 199.313 32.7371V24.4784C199.313 23.4867 199.763 22.7089 200.664 22.1569L204.428 19.9607V34.8959C204.428 35.6618 204.904 36.0502 205.829 36.0758C206.742 36.0758 207.518 35.7496 208.181 35.097C208.831 34.4316 209.156 33.6539 209.156 32.7371V22.2821C209.156 21.2904 209.606 20.4998 210.52 19.9104L214.323 17.7141V34.8959C214.323 35.6618 214.798 36.0502 215.723 36.0758V36.0384H231.095C232.021 36.0384 232.821 35.7121 233.459 35.0467C234.096 34.3941 234.422 33.6036 234.422 32.6996V22.2447C234.422 21.253 234.871 20.4624 235.772 19.873L235.77 19.8708Z" fill="#1C54B3"/>
<path d="M241.636 12.2269L239.622 10.2061L237.608 12.2269C237.495 12.3403 237.408 12.4398 237.346 12.5285C237.322 12.4408 237.246 12.3403 237.134 12.2269L235.12 10.2061L233.106 12.2269C232.906 12.4654 232.794 12.7286 232.794 13.0174C232.794 13.3063 232.907 13.5694 233.106 13.808L235.12 15.8288L237.134 13.808C237.247 13.6946 237.322 13.5823 237.346 13.4946C237.409 13.5823 237.496 13.6957 237.608 13.808L239.622 15.8288L241.636 13.808C241.848 13.5694 241.948 13.3063 241.948 13.0174C241.948 12.7286 241.848 12.4654 241.636 12.2269Z" fill="#1C54B3"/>
</svg>
