<svg width="38" height="38" viewBox="0 0 38 38" fill="none" xmlns="http://www.w3.org/2000/svg">
<path opacity="0.3" d="M8.04325 12.6667H12.7141C13.2208 10.6876 13.9491 8.78756 14.8991 7.03006C11.9858 8.02756 9.56325 10.0384 8.04325 12.6667ZM11.8749 19.0001C11.8749 17.9234 11.9699 16.8784 12.0966 15.8334H6.74492C6.49159 16.8467 6.33325 17.9076 6.33325 19.0001C6.33325 20.0926 6.49159 21.1534 6.74492 22.1667H12.0966C11.9699 21.1217 11.8749 20.0767 11.8749 19.0001ZM8.04325 25.3334C9.57393 27.9776 12.0088 29.9795 14.8991 30.9701C13.9441 29.1871 13.2104 27.2942 12.7141 25.3334H8.04325ZM18.9999 6.39673C17.6858 8.29673 16.6566 10.4026 15.9758 12.6667H22.0241C21.3433 10.4026 20.3141 8.29673 18.9999 6.39673ZM29.9566 12.6667C28.4226 10.0253 25.9889 8.0244 23.1008 7.03006C24.0508 8.78756 24.7791 10.6876 25.2858 12.6667H29.9566ZM18.9999 31.6034C20.3141 29.7034 21.3433 27.5976 22.0241 25.3334H15.9758C16.6566 27.5976 17.6858 29.7034 18.9999 31.6034ZM23.1008 30.9701C25.9889 29.9757 28.4226 27.9748 29.9566 25.3334H25.2858C24.7894 27.2942 24.0557 29.1871 23.1008 30.9701ZM31.2549 15.8334H25.9033C26.0299 16.8784 26.1249 17.9234 26.1249 19.0001C26.1249 20.0767 26.0299 21.1217 25.9033 22.1667H31.2549C31.5083 21.1534 31.6666 20.0926 31.6666 19.0001C31.6666 17.9076 31.5083 16.8467 31.2549 15.8334ZM15.2949 15.8334C15.1524 16.8626 15.0416 17.9234 15.0416 19.0001C15.0416 20.0767 15.1524 21.1217 15.2949 22.1667H22.7049C22.8474 21.1217 22.9583 20.0767 22.9583 19.0001C22.9583 17.9234 22.8474 16.8626 22.7049 15.8334H15.2949Z" fill="white"/>
<path d="M18.9842 3.16675C10.2442 3.16675 3.16675 10.2601 3.16675 19.0001C3.16675 27.7401 10.2442 34.8334 18.9842 34.8334C27.7401 34.8334 34.8334 27.7401 34.8334 19.0001C34.8334 10.2601 27.7401 3.16675 18.9842 3.16675ZM29.9567 12.6667H25.2859C24.7896 10.706 24.0559 8.81308 23.1009 7.03008C25.9891 8.02442 28.4228 10.0253 29.9567 12.6667ZM19.0001 6.39675C20.3142 8.29675 21.3434 10.4026 22.0242 12.6667H15.9759C16.6567 10.4026 17.6859 8.29675 19.0001 6.39675ZM6.74508 22.1667C6.49175 21.1534 6.33341 20.0926 6.33341 19.0001C6.33341 17.9076 6.49175 16.8467 6.74508 15.8334H12.0967C11.9701 16.8784 11.8751 17.9234 11.8751 19.0001C11.8751 20.0767 11.9701 21.1217 12.0967 22.1667H6.74508ZM8.04341 25.3334H12.7142C13.2209 27.3126 13.9492 29.2126 14.8992 30.9701C12.009 29.9795 9.57409 27.9777 8.04341 25.3334ZM12.7142 12.6667H8.04341C9.57409 10.0225 12.009 8.02063 14.8992 7.03008C13.9443 8.81308 13.2106 10.706 12.7142 12.6667ZM19.0001 31.6034C17.6859 29.7034 16.6567 27.5976 15.9759 25.3334H22.0242C21.3434 27.5976 20.3142 29.7034 19.0001 31.6034ZM22.7051 22.1667H15.2951C15.1526 21.1217 15.0417 20.0767 15.0417 19.0001C15.0417 17.9234 15.1526 16.8626 15.2951 15.8334H22.7051C22.8476 16.8626 22.9584 17.9234 22.9584 19.0001C22.9584 20.0767 22.8476 21.1217 22.7051 22.1667ZM23.1009 30.9701C24.0509 29.2126 24.7792 27.3126 25.2859 25.3334H29.9567C28.4228 27.9749 25.9891 29.9757 23.1009 30.9701ZM25.9034 22.1667C26.0301 21.1217 26.1251 20.0767 26.1251 19.0001C26.1251 17.9234 26.0301 16.8784 25.9034 15.8334H31.2551C31.5084 16.8467 31.6667 17.9076 31.6667 19.0001C31.6667 20.0926 31.5084 21.1534 31.2551 22.1667H25.9034Z" fill="white"/>
</svg>
