<?xml version="1.0" encoding="UTF-8"?>
<svg id="Layer_2" data-name="Layer 2" xmlns="http://www.w3.org/2000/svg" xmlns:xlink="http://www.w3.org/1999/xlink" viewBox="0 0 1286.43 281.44">
  <defs>
    <style>
      .cls-1 {
        fill: none;
      }

      .cls-2 {
        fill: #fff;
      }

      .cls-3 {
        fill: #ffc836;
      }

      .cls-4 {
        clip-path: url(#clippath);
      }
    </style>
    <clipPath id="clippath">
      <rect class="cls-1" x="15.7" width="245.23" height="124"/>
    </clipPath>
  </defs>
  <g id="Layer_1-2" data-name="Layer 1">
    <g>
      <g>
        <path class="cls-2" d="M258.19,206.99c-.63.7-1.33,1.29-2.12,1.79-.83.52-1.71.91-2.64,1.18-.17.05-4.4,1.29-11.25,3.83-.99-.63-2.16-.98-3.41-.98-2.98,0-5.5,2.03-6.23,4.78-1.96.81-4.02,1.69-6.17,2.64v-8.1c0-2.84,2.31-5.14,5.15-5.14h26.67Z"/>
        <path class="cls-2" d="M37.37,212.26v2.66c-.93-.36-1.82-.69-2.67-1.01v-1.65c-1.83-.65-2.94-2.53-2.61-4.45.33-1.93,2-3.33,3.95-3.33s3.61,1.4,3.94,3.33c.33,1.92-.77,3.8-2.61,4.45Z"/>
        <path class="cls-2" d="M43.73,217.46c-2.03-.84-3.94-1.6-5.72-2.29h.7c2,0,3.8.89,5.02,2.29Z"/>
        <path class="cls-2" d="M21.3,207.81c.08.48.08.95-.01,1.41-.26-.13-.52-.28-.78-.44-.82-.52-1.55-1.14-2.2-1.88-.63-.72-1.15-1.51-1.56-2.37.2-.03.4-.05.6-.05,1.95,0,3.62,1.4,3.95,3.33Z"/>
        <path class="cls-2" d="M260.7,201.72c-.15.96-.43,1.88-.84,2.76-.08.17-.17.34-.27.51h-28.07c-3.95,0-7.15,3.2-7.15,7.14v8.99c-23.35,10.53-55.83,28.87-78.13,56.52-.48.59-1.02,1.13-1.62,1.6-.6.47-1.24.87-1.92,1.2-.69.33-1.41.58-2.15.75-.75.17-1.5.25-2.26.25s-1.52-.08-2.26-.25-1.45-.42-2.14-.75-1.34-.73-1.93-1.2c-.6-.47-1.14-1.01-1.62-1.6-24.07-29.85-60.01-48.85-83.53-58.89-1.14-2.95-3.85-5.14-7.09-5.52,1.71-1.32,2.62-3.52,2.24-5.76-.5-2.89-2.99-4.99-5.92-4.99s-5.42,2.1-5.92,4.99c-.36,2.08.4,4.12,1.88,5.45-5.23-1.89-8.46-2.85-8.82-2.95.2-.8.24-1.64.09-2.5-.49-2.89-2.98-4.99-5.92-4.99-.44,0-.87.05-1.28.14-.08-.29-.14-.59-.19-.9-.15-.96-.16-1.93-.04-2.89.13-.97.39-1.9.78-2.79.39-.89.9-1.71,1.53-2.46.62-.74,1.34-1.39,2.15-1.93,7.48-4.71,15.47-8.3,23.96-10.75,8.5-2.46,17.16-3.69,26.01-3.7l-31.1-31.1c-.81-.81-1.47-1.74-1.97-2.77-.5-1.04-.82-2.13-.95-3.27-.13-1.14-.08-2.27.17-3.39.25-1.13.68-2.17,1.29-3.15.6-.98,1.35-1.83,2.24-2.56s1.88-1.28,2.96-1.67c1.08-.39,2.2-.6,3.35-.61,1.15-.02,2.27.15,3.36.52l61.27,20.42c.79.27,1.54.63,2.25,1.08.71.45,1.36.98,1.93,1.59.58.61,1.07,1.28,1.48,2.01.42.73.73,1.5.95,2.31l20.79,75.94,20.79-75.94c.22-.81.53-1.58.94-2.31.41-.73.91-1.4,1.49-2.01.58-.61,1.22-1.14,1.92-1.59.71-.45,1.47-.81,2.27-1.08l61.26-20.42c1.09-.37,2.21-.54,3.36-.52,1.15.01,2.27.21,3.35.6,1.08.4,2.07.95,2.96,1.68.89.72,1.64,1.58,2.25,2.56.6.97,1.03,2.02,1.28,3.15.25,1.12.31,2.25.17,3.39-.13,1.14-.45,2.23-.95,3.27-.5,1.03-1.15,1.96-1.97,2.77l-31.09,31.1c8.83.01,17.51,1.24,26,3.7,8.49,2.46,16.48,6.04,23.96,10.76h0c.81.53,1.53,1.18,2.15,1.92.63.75,1.14,1.57,1.53,2.46.39.89.65,1.82.78,2.79.12.96.11,1.93-.04,2.89Z"/>
        <g>
          <path class="cls-2" d="M400.89,171.6c2.58.45,5.65.68,9.2.68,0,.56-.02,1.11-.07,1.65-.14,1.67-.49,3.31-1.05,4.91-.61,1.73-1.44,3.25-2.46,4.57-.23.3-.46.58-.71.85h-10.91l4.86-12.63v-.04h.01s1.13.01,1.13.01Z"/>
          <path class="cls-2" d="M431.99,103.42c-1.63.63-4.16,1.13-7.58,1.5-3.44.38-6.52.57-9.25.57-.75-9.97-1.98-17.64-3.67-23-1.68-5.38-3.96-9.06-6.83-11.05-2.87-2-6.6-3-11.21-3h-3.19v93.73c0,.34.01.66.05.98v.02l-8.1,21.09-4.16-10.25c-2.35-5.53-5.84-9.41-10.48-11.65-2.44-1.18-5.23-1.95-8.37-2.32v-91.6h-4.11c-13.1,0-20.64,12.35-22.64,37.05-8.74-.38-14.35-1.07-16.84-2.07,0-7.36.57-16.77,1.69-28.25,1.13-11.47,2.68-19.39,4.67-23.77,5.73,0,10.85.75,15.35,2.25h72.96c4.75-1.5,9.87-2.25,15.35-2.25,1.99,4.38,3.55,12.3,4.67,23.77,1.13,11.48,1.69,20.89,1.69,28.25Z"/>
        </g>
        <g>
          <path class="cls-2" d="M533.39,110.17v44.61c-1.93.74-3.69,1.52-5.28,2.36l-6.3,3.33v15.69c-2.97.24-5.85,1.02-8.64,2.34-.26-.16-.52-.3-.79-.43-2.26-1.13-4.74-1.7-7.44-1.7-.5,0-1.01.02-1.55.05-.21-.88-.31-1.82-.31-2.83v-60.25c0-3.98-1.09-7.07-3.27-9.25-2.18-2.19-5.15-3.29-8.9-3.29-2.49,0-5.07.81-7.77,2.44-2.68,1.62-4.64,3.68-5.87,6.18v54.63c0,3.62.77,6.22,2.33,7.77,1.55,1.56,4.21,2.33,7.96,2.33,0,2.33-.52,4.47-1.57,6.44l-4.9,2.35c-.11-.1-.21-.18-.32-.27-5.73-4.55-13.43-6.82-23.12-6.82-6.58,0-12.28.92-17.11,2.78-.66.25-1.3.52-1.93.8-.29-.71-.52-1.44-.68-2.2v-.02c-.21-.92-.32-1.86-.32-2.85v-.02s0-.02-.01-.03v-.16c3.74,0,6.38-.77,7.94-2.33,1.57-1.55,2.35-4.15,2.35-7.77V62.63c0-3.11-.87-5.42-2.62-6.92s-5.06-2.25-9.92-2.25v-7.66c4.49-2.38,10.19-4.47,17.11-6.27,6.92-1.81,12.51-2.71,16.75-2.71,2.87,0,4.93.66,6.18,1.98,1.25,1.31,1.88,3.51,1.88,6.62v36.86l-.38,14.98c3.36-4.38,7.63-7.93,12.82-10.67,5.17-2.75,10.88-4.13,17.12-4.13,8.72,0,15.32,2.35,19.81,7.03,4.5,4.68,6.75,11.57,6.75,20.68Z"/>
          <path class="cls-2" d="M540.67,177.05c0-1.75-.5-3.06-1.48-3.93-.67-.61-1.76-1-3.26-1.19h-.01c-.68-.09-1.44-.13-2.28-.13h-.02v-4.2s0-.01.02-.01c.17-.09.35-.18.53-.27.38,1.02.9,1.93,1.56,2.73,1.55,1.86,3.77,3.1,6.64,3.73l.1,2.85.09,2.58c-.59.54-1.22,1.04-1.89,1.51v-3.67Z"/>
        </g>
        <path class="cls-2" d="M632.54,133.28c1.75-3.18,2.63-7.52,2.63-13.02,0-11.72-3.37-20.89-10.11-27.5-6.74-6.61-15.78-9.92-27.12-9.92-8.99,0-17.04,2.16-24.15,6.46-7.11,4.31-12.7,10.45-16.75,18.44-4.04,7.98-6.06,17.28-6.06,27.87,0,5.38.5,10.38,1.52,15.02,2.05,0,3.94.28,5.71.84,2.52.81,4.66,2.13,6.41,3.97,2.92,3.06,4.38,7.04,4.38,11.95v9.4h26.07l3.47,3.47c.91.91,1.7,1.89,2.38,2.96.83-.61,1.69-1.18,2.58-1.72,5.87-3.56,12.43-5.34,19.67-5.34.94,0,1.86.03,2.76.09.41-.35.8-.71,1.17-1.08,3-2.92,4.5-5.51,4.5-7.75,0-1.5-.37-3.24-1.12-5.23-.74-2-1.61-3.5-2.61-4.5-6.74,4.99-14.03,7.48-21.89,7.48-14.73,0-22.46-9.04-23.21-27.12h40.42c4.48,0,7.6-1.59,9.35-4.77ZM605.6,121.78c-.62,1.36-1.93,2.04-3.93,2.04h-18.9c.25-10.1,1.68-17.3,4.29-21.61,2.63-4.3,5.88-6.45,9.75-6.45,2.99,0,5.36,1.43,7.11,4.31,1.75,2.86,2.62,7.97,2.62,15.33,0,2.88-.31,5-.94,6.38Z"/>
        <g>
          <path class="cls-2" d="M734.32,172.28v.1c-.01,2.21-.39,4.36-1.13,6.46-.65,1.82-1.48,3.41-2.49,4.77-.01.01-.02.02-.02.03-.16.21-.32.41-.49.61h0s-13.59.01-13.59.01v-.68c0-.06,0-.11-.01-.17-.03-1.8-.67-3.12-1.89-3.94-.8-.54-1.84-.91-3.14-1.1-.47-.08-.98-.12-1.53-.15h-.89v-.02c0-1.18.21-2.36.62-3.56.43-1.19,1.03-2.21,1.8-3.04h16.5c.13,0,.25,0,.38.01,1.47.42,3.29.64,5.47.66.13.01.27.01.41.01Z"/>
          <path class="cls-2" d="M806.74,65.44c-4,0-6.85.73-8.53,2.17-1.68,1.43-2.52,3.89-2.52,7.38v84.78h-30.56l-.87,2.27v-36.35h-41.17v34.08h-16.73l-3.52,3.83c-1.85,2.03-3.26,4.4-4.22,7.11-.87,2.46-1.3,4.96-1.3,7.51v6.04h-2.42v-6.84h-12.21c-.07-1.8-.37-3.53-.93-5.17,3.42-.13,5.88-.8,7.37-2.01,1.68-1.38,2.52-3.82,2.52-7.32v-87.93c0-3.49-.84-5.95-2.52-7.38-1.68-1.44-4.58-2.17-8.69-2.17,0-2.12.37-4.24,1.11-6.35.75-2.13,1.75-3.94,3-5.44h45.64c1.25,1.5,2.25,3.31,3,5.44.75,2.11,1.13,4.23,1.13,6.35-4.12,0-7.02.73-8.71,2.17-1.68,1.43-2.52,3.89-2.52,7.38v35h41.17v-35c0-3.49-.88-5.95-2.63-7.38-1.74-1.44-4.6-2.17-8.6-2.17,0-2.12.37-4.24,1.12-6.35.75-2.13,1.75-3.94,3-5.44h45.46c1.25,1.5,2.25,3.31,3,5.44.75,2.11,1.13,4.23,1.13,6.35Z"/>
        </g>
        <path class="cls-2" d="M854.6,39.26c-3.24-3.25-7.53-4.88-12.89-4.88s-9.7,1.63-13,4.88c-3.31,3.24-4.96,7.47-4.96,12.7s1.59,9.66,4.77,12.84c3.18,3.18,7.45,4.77,12.81,4.77s9.88-1.59,13.19-4.77c3.3-3.18,4.96-7.46,4.96-12.84s-1.63-9.46-4.88-12.7ZM858.62,171.82c-1.8-1.55-2.7-4.15-2.7-7.77v-72.79c0-3.11-.63-5.32-1.88-6.63-1.24-1.32-3.29-1.98-6.17-1.98-4.99,0-11.07,1.04-18.25,3.11-7.16,2.05-12.24,4.01-15.23,5.87v8.25c4.86,0,8.13.75,9.82,2.25,1.67,1.49,2.52,3.98,2.52,7.48v54.25c0,3.75-.85,6.41-2.52,7.96-1.69,1.56-4.39,2.33-8.13,2.33,0,1.27.15,2.48.46,3.63,4.26-1.29,9.14-1.93,14.62-1.93,9.69,0,17.39,2.27,23.12,6.82.63.5,1.24,1.03,1.81,1.59h6.58c1.23-1.25,2.21-2.59,2.91-4.02.92-1.87,1.38-3.9,1.38-6.09-3.74,0-6.52-.77-8.34-2.33Z"/>
        <path class="cls-2" d="M973.79,174.34c-5.99-1.13-8.98-4.74-8.98-10.85V45.99c0-3.11-.66-5.32-1.96-6.63-1.31-1.32-3.4-1.98-6.27-1.98-3.99,0-9.48.94-16.46,2.81-6.99,1.87-12.66,3.98-17.02,6.36v7.66c4.86,0,8.16.75,9.89,2.25,1.75,1.5,2.63,3.81,2.63,6.92v9.36l.56,11.22c-5.49-.5-9.29-.75-11.41-.75-8.98,0-17.21,2.13-24.69,6.38-7.49,4.24-13.51,10.6-18.06,19.08-4.56,8.48-6.84,18.77-6.84,30.88,0,10.22,1.78,18.86,5.34,25.91,2.19,4.35,4.83,8.04,7.9,11.06,6.43.44,11.78,1.95,16.07,4.52l1.77-.28c.8-1.06,1.54-2.45,2.23-4.19.84-2.16,1.38-4.26,1.62-6.31l1-8.87,1.41-.23h0c-3.69-6.44-5.53-15.83-5.53-28.17s1.66-22.14,4.96-27.88c3.31-5.73,7.7-8.6,13.19-8.6,4.38,0,7.87,1.8,10.48,5.41v60.2c1.63.96,3.07,2.17,4.32,3.63,2.93,3.44,4.49,7.32,4.65,11.67h12.21v4.69c.32-.21.64-.41.97-.61,4.88-2.96,10.25-4.69,16.09-5.18l-.07-1.98Z"/>
        <path class="cls-2" d="M1079.68,174.34c-5.99-1.13-8.98-4.74-8.98-10.85V45.99c0-3.11-.66-5.32-1.96-6.63-1.31-1.32-3.39-1.98-6.27-1.98-3.99,0-9.47.94-16.46,2.81-6.99,1.87-12.66,3.98-17.02,6.36v7.66c4.86,0,8.16.75,9.9,2.25,1.75,1.5,2.62,3.81,2.62,6.92v9.36l.56,11.22c-5.49-.5-9.29-.75-11.41-.75-8.98,0-17.21,2.13-24.69,6.38-7.49,4.24-13.51,10.6-18.06,19.08-4.56,8.48-6.84,18.77-6.84,30.88,0,10.22,1.78,18.86,5.34,25.91,3.51,6.96,8.14,12.22,13.9,15.76,2.49-1.1,5.32-2.08,8.52-2.93,4.81-1.28,8.79-1.92,11.92-1.92,2.7,0,5.18.57,7.44,1.7.27.13.53.27.78.42,3.46-1.62,7.06-2.43,10.8-2.43,2.91,0,5.57.42,7.99,1.26,3.04,1.06,5.6,2.73,7.68,5.01.16.17.31.35.46.53.85-.59,1.74-1.15,2.65-1.67,5.98-3.42,12.62-5.13,19.89-5.13.44,0,.87.01,1.3.03l-.06-1.75ZM1041.51,167.42c-1.99,2.24-4.91,3.36-8.79,3.36-5.86,0-10.64-3.21-14.31-9.63-3.68-6.43-5.52-15.82-5.52-28.16s1.65-22.14,4.96-27.88c3.3-5.73,7.69-8.6,13.18-8.6,4.38,0,7.87,1.8,10.48,5.41v65.5Z"/>
        <path class="cls-2" d="M1105.77,177.87c-.17.08-.33.15-.49.23.16.11.32.22.49.34.79.53,1.6,1.04,2.43,1.52.7.4,1.41.79,2.14,1.14v-4.78c-1.78.48-3.31,1-4.57,1.55ZM1166.11,162.19c-.74-2-1.6-3.5-2.6-4.5-6.74,4.99-14.04,7.48-21.9,7.48-2.93,0-5.58-.36-7.95-1.08.22,1.2.33,2.48.33,3.82v15.17c2.32-1.77,5.04-3.25,8.16-4.45,4.83-1.86,10.53-2.78,17.11-2.78.91,0,1.8.02,2.68.07.28-.24.54-.5.8-.75,3-2.92,4.5-5.51,4.5-7.75,0-1.5-.38-3.24-1.13-5.23ZM1160.7,92.76c-6.74-6.61-15.79-9.92-27.13-9.92-8.99,0-17.04,2.16-24.15,6.46-7.11,4.31-12.69,10.45-16.75,18.44-4.04,7.98-6.06,17.28-6.06,27.87,0,8.83,1.36,16.65,4.09,23.49l2.18-1.21c3.42-1.89,7.55-3.46,12.39-4.69,4.81-1.23,8.9-1.84,12.27-1.84,1.16,0,2.27.08,3.32.25-1.42-3.74-2.24-8.26-2.46-13.56h40.42c4.48,0,7.6-1.59,9.35-4.77,1.75-3.18,2.63-7.52,2.63-13.02,0-11.72-3.37-20.89-10.1-27.5ZM1141.24,121.78c-.63,1.36-1.94,2.04-3.94,2.04h-18.9c.25-10.1,1.68-17.3,4.3-21.61,2.62-4.3,5.87-6.45,9.75-6.45,2.98,0,5.35,1.43,7.1,4.31,1.75,2.86,2.62,7.97,2.62,15.33,0,2.88-.31,5-.93,6.38Z"/>
        <path class="cls-2" d="M1286.43,179.21c-.81.81-1.9,1.55-3.27,2.22-5.27-3.37-12.24-5.06-20.91-5.06-5.33,0-10.11.7-14.34,2.11-.64-1.58-.96-3.46-.96-5.64v-58.38c0-4.85-1.07-8.35-3.19-10.47s-4.93-3.19-8.42-3.19c-5.11,0-9.41,2.06-12.91,6.19v57.06c0,3.62.77,6.25,2.33,7.87,1.57,1.62,4.22,2.42,7.96,2.42,0,2.13-.47,4.13-1.4,5.97-5-2.62-11.33-3.94-18.99-3.94-9.56,0-17.36,2.26-23.38,6.78-.48.36-.94.72-1.38,1.11h-1.62c-3-3-4.5-6.31-4.5-9.92,3.75,0,6.42-.8,8.04-2.42,1.62-1.62,2.44-4.25,2.44-7.87v-54.63c0-3.37-.94-5.77-2.82-7.21-1.86-1.42-5.1-2.14-9.7-2.14v-8.44c3.98-2.23,9.62-4.29,16.91-6.17,7.3-1.87,12.83-2.81,16.56-2.81,2.88,0,5.09.91,6.65,2.73,1.55,1.81,2.46,5.2,2.71,10.19,3.25-3.99,7.3-7.13,12.17-9.44,4.85-2.32,10.34-3.48,16.45-3.48,8.99,0,15.63,2.28,19.94,6.84,4.3,4.55,6.46,12.01,6.46,22.35v51.08c0,6.12,2.99,9.73,8.98,10.86l.19,5.43Z"/>
        <g>
          <path class="cls-3" d="M423.71,238.07c.71.1,1.52.15,2.42.15h0c0,1.28-.22,2.5-.64,3.69-.42,1.18-1.01,2.2-1.77,3.04h-26.07c-.7-.84-1.27-1.86-1.68-3.04-.42-1.19-.63-2.41-.63-3.68h0c.84-.01,1.61-.06,2.3-.16,1.32-.17,2.37-.53,3.16-1.06,1.16-.78,1.76-2.07,1.78-3.88.01-.05.01-.11.01-.16v-43.52l-17.87,45.1c-.91,2.17-2.17,3.66-3.77,4.46-1.13.56-2.49.93-4.09,1.09-.7.08-1.44.12-2.23.12l-19.71-48.09-1.1-2.68v43.52c0,1.89.68,3.24,2.04,4.04.97.57,2.28.93,3.95,1.09.38.05.79.08,1.21.09.36.02.73.03,1.11.03,0,.16,0,.32,0,.47-.05,1.11-.26,2.18-.63,3.22-.42,1.18-.98,2.2-1.67,3.04h-21.87c-.7-.84-1.27-1.86-1.69-3.04-.39-1.11-.6-2.26-.62-3.45-.01-.08-.01-.16-.01-.24.85,0,1.63-.04,2.32-.14,1.44-.17,2.56-.53,3.35-1.07,1.19-.8,1.79-2.15,1.79-4.04v-49.39c0-.06,0-.11-.01-.17-.03-1.8-.66-3.12-1.88-3.94-.57-.38-1.27-.68-2.1-.89-.33-.09-.68-.16-1.05-.21-.48-.08-.98-.12-1.53-.15-.28-.01-.58-.02-.88-.02h-.01c0-.07,0-.15.01-.22.02-1.11.23-2.21.62-3.34.42-1.19,1.02-2.21,1.79-3.04h16.5c3.29,0,5.92.47,7.87,1.41,1.97.95,3.56,2.83,4.75,5.63l2.28,5.62,8.85,21.79,2.24,6.95,1.97,6.1,4-13.05,7.85-20.42.53-1.37,4.86-12.63v-.03h23.97c.76.83,1.35,1.85,1.77,3.04.42,1.2.64,2.38.64,3.56-.3,0-.59.01-.87.02-.55.03-1.07.08-1.55.16-1.21.2-2.17.56-2.89,1.09-1.12.82-1.69,2.14-1.72,3.94-.01.06-.01.11-.01.17v49.39c0,.06,0,.11.01.16.01,1.4.32,2.48.91,3.25t.01.02c.2.26.43.49.7.68.7.49,1.69.82,2.99.99Z"/>
          <path class="cls-3" d="M478.77,232.24v-27.85c0-4.56-1.24-8.22-3.73-10.94-.48-.54-1.03-1.05-1.62-1.52-1.55-1.23-3.42-2.2-5.6-2.9-2.85-.91-6.24-1.37-10.17-1.37-.67,0-1.32.01-1.96.03-1.78.07-3.45.22-5.01.46-2.18.33-4.15.84-5.91,1.51-3.46,1.33-6.03,3.09-7.73,5.27-1.68,2.17-2.52,4.48-2.52,6.94,0,1.32.23,2.51.71,3.56.02.06.04.11.07.16.39.84.94,1.59,1.64,2.26,1.61,1.54,3.75,2.31,6.41,2.31,2.46,0,4.49-.7,6.11-2.11.02-.02.04-.03.05-.05.72-.63,1.28-1.36,1.66-2.17.41-.81.63-1.7.68-2.69.02-.17.03-.36.03-.54,0-.11,0-.23,0-.34-.04-.79-.21-1.52-.53-2.21-.12-.3-.28-.59-.46-.87-.67-1.01-1.66-1.73-2.99-2.17h0c1.46-1.11,3.36-1.66,5.67-1.66s4.26.61,5.67,1.83c.71.62,1.24,1.44,1.59,2.47.34,1,.51,2.19.51,3.57v13.98c-.88-.43-1.92-.82-3.13-1.15-.7-.19-1.46-.36-2.28-.52-2.19-.42-4.34-.64-6.41-.64h-.05c-1.88,0-3.62.13-5.22.4h-.01c-3.51.59-6.32,1.82-8.44,3.7-.45.4-.86.81-1.23,1.25-1.52,1.73-2.52,3.79-3.02,6.16-.25,1.17-.37,2.41-.37,3.74,0,4.56,1.62,8.28,4.87,11.19.48.42.98.82,1.5,1.18,1.87,1.31,4.03,2.21,6.46,2.71,1.5.31,3.11.46,4.83.46,2.93,0,5.55-.47,7.86-1.42.01,0,.01-.01.02-.01,2.28-.92,4.21-2.07,5.8-3.45.02-.02.05-.04.07-.06,0,0,0,.01.01.01.61,1.03,1.36,1.89,2.25,2.59,0,.01.01.01.01.01.97.77,2.1,1.35,3.4,1.73,1.3.4,2.77.6,4.4.6h.04c1.51,0,3.02-.17,4.5-.52.64-.14,1.26-.31,1.89-.52,1.5-.5,2.69-1.14,3.58-1.92.36-.32.68-.66.94-1.02v-3.37c-3.22-.7-4.83-2.72-4.83-6.09ZM461.33,235.49c-.7.49-1.57.89-2.58,1.21-1.01.32-2.05.48-3.1.48-2.01,0-3.64-.56-4.89-1.69-.05-.04-.11-.09-.16-.14-.45-.44-.81-.92-1.09-1.45-.02-.02-.03-.04-.04-.06-.49-.93-.74-1.99-.74-3.18,0-1.49.26-2.76.78-3.8.02-.05.04-.1.07-.14.27-.52.61-.97,1.02-1.37.02-.02.04-.04.06-.05,1.26-1.19,2.85-1.79,4.78-1.79.98,0,2.02.18,3.1.52,1.09.35,2.01.77,2.79,1.27v10.19Z"/>
          <path class="cls-3" d="M533.1,196.91c0,3.01-.79,5.47-2.37,7.37-.56.68-1.18,1.23-1.88,1.66-1.26.79-2.75,1.18-4.46,1.18-2.32,0-4.2-.67-5.64-2-1.03-.97-1.69-2.05-1.98-3.27-.11-.47-.17-.95-.17-1.46,0-1.13.11-2,.34-2.63-2.22.55-4.14,1.45-5.76,2.7h-.01c-.22.18-.44.36-.65.55v31.54c0,.2,0,.39.01.58.05,1.47.29,2.61.72,3.42.48.91,1.44,1.59,2.87,2.05,1.09.34,2.59.55,4.49.64.3.01.62.02.95.03.33.01.68.01,1.04.01,0,1.25-.14,2.33-.41,3.21-.28.88-.81,1.7-1.59,2.46h-28.06c-1.56-1.56-2.37-3.38-2.41-5.47,0-.06,0-.13,0-.2h0c.12,0,.24,0,.36-.01.78-.02,1.47-.1,2.06-.27.82-.2,1.47-.55,1.95-1.03.87-.88,1.31-2.38,1.31-4.48v-30.53c-.03-1.81-.54-3.08-1.54-3.82-.53-.41-1.27-.71-2.23-.9-.1-.02-.22-.04-.33-.06-.81-.14-1.75-.21-2.84-.21v-4.73l1.43-.75c2.1-1.03,4.68-1.95,7.76-2.77.87-.23,1.7-.44,2.49-.62,2.64-.6,4.77-.9,6.39-.9,1,0,1.84.22,2.49.66h0c.43.28.78.66,1.06,1.13.71,1.18,1.06,3.56,1.06,7.15,1.26-2.39,3.26-4.53,6-6.42,2.74-1.88,5.54-2.83,8.42-2.83,1.94,0,3.57.31,4.87.92.81.38,1.49.88,2.04,1.49.25.28.48.57.69.89,1.01,1.5,1.52,3.41,1.52,5.72Z"/>
          <path class="cls-3" d="M593.85,241.37h0c-.12.86-.49,1.59-1.13,2.22-.19.2-.42.39-.68.57h0c-.32.23-.68.43-1.08.62-1.71.81-3.9,1.21-6.56,1.21-.73,0-1.43-.03-2.1-.1-2.65-.24-4.91-.98-6.78-2.21-2.35-1.54-4.19-3.4-5.52-5.56-1.33-2.17-2.77-5.01-4.31-8.52-.83-1.84-1.6-3.45-2.32-4.83-.61-1.19-1.19-2.21-1.72-3.05-1.16-1.82-2.64-3.08-4.46-3.79v16.08c0,2.04.43,3.5,1.31,4.38.48.48,1.16.83,2.04,1.04.71.18,1.55.27,2.52.27,0,2.17-.84,4.02-2.52,5.56h-23.12c-1.69-1.47-2.52-3.32-2.52-5.56.97,0,1.81-.09,2.52-.29.82-.21,1.46-.55,1.93-1.02.88-.88,1.32-2.34,1.32-4.38v-56.96c0-1.75-.5-3.06-1.48-3.93-.67-.61-1.76-1-3.26-1.19h-.01c-.68-.09-1.44-.13-2.28-.13h-.02v-4.2s0-.01.02-.01c.17-.09.35-.18.53-.27,2.44-1.23,5.47-2.31,9.08-3.29.94-.25,1.83-.48,2.67-.67,2.65-.6,4.83-.91,6.54-.91s2.88.39,3.62,1.17c.74.76,1.11,2.02,1.11,3.77v46.77l11.54-11.98c1.33-1.33,2-2.39,2-3.17,0-.97-.76-1.87-2.27-2.71-.65-.37-1.3-.65-1.93-.86-.82-.27-1.63-.41-2.42-.41h-.01c0-.07,0-.15.01-.22.02-1.11.23-2.2.62-3.26.43-1.12,1.03-2.1,1.81-2.93h23.65c.93.93,1.54,2.25,1.81,3.97.1.54.15,1.11.17,1.73.02.23.02.47.02.71h-.02c-.62,0-1.19.04-1.71.1-.1.01-.19.03-.28.04-.77.12-1.42.32-1.95.59-.95.49-1.91,1.19-2.88,2.11l-2.6,2.57-.3.29-13.08,12.91c1.36.21,2.6.56,3.74,1.03.26.1.51.21.76.33.06.02.11.05.16.08.17.07.33.16.49.25.16.08.32.17.47.27.13.08.26.15.38.23.2.13.39.26.57.39.22.16.45.33.66.52.22.18.44.37.65.58.03.02.06.05.08.08.14.12.27.26.4.4.1.1.2.2.29.31.14.16.29.33.43.5.15.18.29.36.43.54.19.25.38.51.57.78.12.15.22.31.33.47.16.25.33.51.49.78.19.31.38.63.56.96,1.75,3.15,2.66,4.8,2.73,4.94.36.67.7,1.3,1.04,1.9.16.3.32.59.48.87.79,1.41,1.5,2.61,2.12,3.59.2.31.39.6.57.87.36.54.69.99.98,1.35,1.17,1.43,2.83,2.49,5,3.19h0s.1,2.52.1,2.52Z"/>
          <path class="cls-3" d="M642.67,200.23c-.94-2.59-2.36-4.82-4.25-6.68-.4-.4-.82-.77-1.26-1.12-.36-.3-.73-.58-1.11-.84-3.45-2.4-7.75-3.6-12.88-3.6s-9.56,1.21-13.56,3.63c-1.22.74-2.35,1.56-3.4,2.49-.78.68-1.52,1.42-2.21,2.22-1.46,1.65-2.72,3.53-3.79,5.64-.78,1.54-1.44,3.17-1.94,4.88-.99,3.27-1.48,6.86-1.48,10.77s.43,7.11,1.29,10.2c.48,1.75,1.1,3.4,1.86,4.94,1.47,2.98,3.37,5.47,5.7,7.44,1.02.88,2.12,1.65,3.3,2.33,3.88,2.24,8.42,3.36,13.6,3.36.56,0,1.1-.01,1.64-.05,3.07-.14,5.87-.72,8.4-1.72,2.97-1.2,5.3-2.61,6.98-4.25,1.7-1.65,2.55-3.11,2.55-4.38,0-.84-.22-1.82-.65-2.94-.2-.53-.42-1.01-.65-1.41-.11-.2-.23-.38-.35-.55-.15-.21-.3-.4-.46-.56h0l-.03.03c-.33.24-.67.48-1,.7-2.71,1.79-5.56,2.88-8.58,3.28-.88.12-1.78.18-2.69.18-1.07,0-2.08-.09-3.02-.26-2.49-.45-4.51-1.49-6.07-3.14-1.79-1.87-2.97-4.54-3.54-7.99-.21-1.18-.34-2.47-.39-3.84h22.71c2.51,0,4.25-.88,5.23-2.66.02-.04.04-.08.06-.12.03-.05.06-.1.07-.15.75-1.48,1.18-3.35,1.3-5.64.03-.45.04-.92.04-1.41,0-3.29-.47-6.21-1.41-8.78ZM628,207.17c-.06,1.16-.23,2.05-.52,2.68-.2.44-.53.75-.98.93-.34.14-.75.21-1.23.21h-10.6c.03-1.37.1-2.64.21-3.82.21-2.16.54-4,1-5.52.29-.95.63-1.78,1.02-2.47.06-.11.12-.21.18-.31,1.47-2.42,3.3-3.63,5.46-3.63,1.68,0,3.01.81,4,2.42.42.7.77,1.63,1,2.8.32,1.53.48,3.46.48,5.8,0,.32-.01.62-.02.91Z"/>
          <path class="cls-3" d="M685.61,235.7c0,1.62-.56,3.19-1.68,4.73-1.13,1.54-2.82,2.81-5.07,3.79-1.49.65-3.19,1.08-5.09,1.29-.94.12-1.94.17-2.99.17-4.91,0-8.85-1.4-11.83-4.19-2.98-2.8-4.46-7.46-4.46-13.98v-28.91h-6.63v-6.42h.01c1.11-.17,2.2-.67,3.26-1.48.69-.54,1.38-1.21,2.05-2.02.49-.59.96-1.22,1.4-1.9,1.13-1.69,2.14-3.65,3.01-5.87,1.22-3.12,2-6.21,2.38-9.28v-.03s.04-.01.06-.01c1.23-.21,2.36-.33,3.4-.33,1.91,0,3.46.42,4.62,1.25.37.27.71.57,1,.92,1.13,1.33,1.74,2.79,1.81,4.39h0s.01.02,0,.03t0,.02c.02.11.02.22.02.33v11.04h12.21c0,.27,0,.53-.01.78-.02,1.79-.13,3.33-.32,4.64-.21,1.5-.66,2.81-1.36,3.94h-10.31v29.64c0,2.1.42,3.55,1.25,4.36.42.4.92.69,1.51.89.14.05.28.09.43.12.49.13,1.04.19,1.65.19,1.33,0,2.73-.34,4.2-1.04,1.41-.68,2.54-1.51,3.38-2.5.03-.04.07-.08.1-.12.7.56,1.2,1.39,1.52,2.52.32,1.11.48,2.12.48,3.04Z"/>
          <path class="cls-3" d="M797.21,238.07c.71.1,1.53.15,2.43.15,0,.16,0,.32-.01.47-.05,1.11-.26,2.18-.64,3.22-.41,1.18-1.01,2.2-1.77,3.04h-26.06s-.01-.01-.01-.01c-.7-.84-1.26-1.85-1.68-3.03-.27-.78-.45-1.57-.53-2.38-.06-.43-.09-.86-.09-1.3h0c.22-.01.44-.01.65-.02.59-.02,1.14-.06,1.65-.14,1.32-.17,2.37-.53,3.16-1.06,1.16-.78,1.76-2.07,1.78-3.88.01-.05.01-.11.01-.16v-43.51h-.01l-7.61,19.2-.22.57-1.66,4.17-1.03,2.62-1.31,3.29-2.81,7.09-3.05,7.7-.18.45c-.3.73-.65,1.38-1.04,1.96-.05.09-.11.17-.17.25-.72,1.01-1.57,1.76-2.56,2.25-1.12.56-2.48.93-4.08,1.09-.7.08-1.44.12-2.23.12v-.02s-.7-1.68-.7-1.68l-4.96-12.12-3.33-8.11-10.72-26.16-1.1-2.67v43.51s0,.11.01.16c.02,1.16.3,2.11.85,2.84.31.41.7.76,1.18,1.04.96.57,2.28.94,3.95,1.09.38.05.78.08,1.2.09.36.02.73.03,1.12.03,0,.16,0,.32-.01.47-.03.57-.09,1.14-.21,1.69-.1.52-.25,1.03-.43,1.53-.41,1.18-.97,2.2-1.66,3.04h-21.88c-.7-.84-1.26-1.86-1.69-3.04-.41-1.19-.62-2.41-.62-3.68h0c.85-.01,1.62-.05,2.32-.15,1.43-.17,2.55-.53,3.35-1.07.38-.25.69-.56.95-.93.54-.75.82-1.73.83-2.95.01-.05.01-.11.01-.16v-49.39c0-.06,0-.11-.01-.17-.03-1.8-.67-3.12-1.89-3.94-.8-.54-1.84-.91-3.14-1.1-.47-.08-.98-.12-1.53-.15-.28-.01-.58-.02-.89-.02,0-1.18.21-2.36.62-3.56.43-1.19,1.03-2.21,1.8-3.04h16.5c.13,0,.25,0,.38.01,2.11.02,3.93.24,5.47.66.14.04.27.08.41.11.58.18,1.11.39,1.61.63,1.97.95,3.55,2.83,4.75,5.63l8.84,21.77,2.29,5.64v.02l2.23,6.92,1.97,6.11,4-13.03v-.02l2.22-5.76,2.03-5.29,2.13-5.54,1.47-3.83.53-1.37,4.86-12.63v-.03h23.97c.76.83,1.36,1.85,1.77,3.04.38,1.05.59,2.08.64,3.12.01.15.01.29.01.44h-.01c-.3,0-.58.01-.86.02-.56.03-1.08.08-1.56.16-1.2.2-2.16.57-2.88,1.09-1.12.82-1.69,2.14-1.72,3.94-.01.06-.01.11-.01.17v49.39c0,.06,0,.11.01.16.01,1.41.32,2.5.93,3.28.19.26.42.48.68.67.7.49,1.69.82,2.99.99Z"/>
          <path class="cls-3" d="M852.28,232.24v-27.85c0-2.61-.41-4.91-1.23-6.92-.88-2.21-2.26-4.06-4.13-5.54-1.56-1.23-3.42-2.2-5.61-2.9-2.85-.91-6.23-1.37-10.16-1.37-.67,0-1.32.01-1.96.03-1.78.07-3.45.22-5.01.46-2.18.33-4.14.84-5.9,1.51-3.46,1.33-6.04,3.09-7.73,5.27-1.68,2.17-2.52,4.48-2.52,6.94,0,1.32.23,2.51.71,3.56,0,.05.04.1.07.15.38.84.93,1.6,1.63,2.27,1.61,1.54,3.75,2.31,6.42,2.31,2.46,0,4.49-.7,6.11-2.11.01-.01.03-.03.04-.04.72-.64,1.28-1.36,1.67-2.18.4-.81.62-1.7.67-2.69.02-.17.03-.36.03-.54,0-.12,0-.23-.01-.35-.04-.78-.21-1.52-.52-2.2-.13-.3-.29-.59-.47-.87-.66-1.01-1.65-1.73-2.99-2.17h0c1.47-1.11,3.37-1.66,5.68-1.66s4.26.61,5.67,1.83c.71.62,1.23,1.44,1.58,2.46.35,1,.52,2.19.52,3.58v13.98c-.89-.43-1.93-.82-3.14-1.15-.7-.19-1.46-.36-2.28-.52-2.19-.42-4.33-.64-6.41-.64h-.04c-1.89,0-3.63.13-5.23.4h-.01c-3.51.59-6.31,1.82-8.43,3.7-.45.4-.86.81-1.23,1.25-1.52,1.73-2.53,3.79-3.03,6.16-.25,1.17-.37,2.41-.37,3.74,0,4.56,1.63,8.28,4.88,11.19.48.42.98.82,1.5,1.18,1.87,1.31,4.03,2.21,6.46,2.71,1.51.31,3.12.46,4.83.46,2.93,0,5.55-.47,7.85-1.42.02-.01.03-.01.05-.02,2.27-.92,4.2-2.07,5.78-3.44.02-.02.05-.04.07-.06,0,0,0,.01.01.01.62,1.04,1.38,1.92,2.28,2.62.97.76,2.1,1.34,3.38,1.71,1.3.4,2.76.6,4.39.6h.04c2.17,0,4.3-.35,6.4-1.04.06-.02.12-.04.18-.07,1.42-.49,2.55-1.11,3.4-1.85.36-.32.68-.66.94-1.02v-3.37c-3.22-.7-4.83-2.72-4.83-6.09ZM834.84,235.49h-.01c-.71.49-1.56.89-2.57,1.21-1.02.32-2.06.48-3.11.48-2.01,0-3.64-.56-4.88-1.69-.06-.04-.11-.09-.16-.14-.45-.44-.82-.93-1.1-1.46-.01-.02-.02-.03-.02-.04-.01,0-.01-.01-.01-.01-.49-.93-.74-1.99-.74-3.18,0-1.49.25-2.74.77-3.78.02-.05.05-.11.08-.16.27-.52.61-.97,1.02-1.37.02-.02.04-.04.06-.05,1.25-1.19,2.85-1.79,4.77-1.79.99,0,2.03.18,3.11.52,1.08.35,2,.77,2.78,1.27h.01v10.19Z"/>
          <path class="cls-3" d="M906.3,229.93c0,2.12-.34,4.02-1.01,5.71-1.05,2.67-2.94,4.81-5.66,6.41-.26.16-.53.31-.8.45-4.3,2.33-9.56,3.49-15.76,3.49-3.43,0-6.85-.51-10.25-1.52-1.4-.42-2.69-.91-3.88-1.48-1.7-.8-3.2-1.76-4.48-2.87-2.11-1.85-3.2-4.04-3.25-6.57v-.16c0-2.46.7-4.44,2.11-5.94.25-.27.51-.51.79-.72.16-.13.32-.25.49-.36.16-.11.33-.21.51-.31.17-.1.35-.19.53-.26.09-.04.2-.09.3-.12.15-.06.3-.12.46-.16.18-.06.36-.1.55-.14.01-.01.02-.01.04-.01.09-.02.17-.04.27-.05.02-.01.04-.01.06-.01.18-.03.37-.06.56-.07.26-.03.52-.04.79-.04,1.96,0,3.62.64,4.98,1.9,1.38,1.25,2.06,2.89,2.06,4.91,0,.34-.02.66-.05.97-.06.52-.16.99-.32,1.41-.24.66-.67,1.38-1.29,2.14.55.58,1.6,1.02,3.14,1.34,1.54.3,3.19.46,4.94.46,2.39,0,4.26-.44,5.63-1.32,1.35-.87,2.04-2.01,2.04-3.41,0-1.85-.84-3.44-2.52-4.79-.03-.03-.07-.06-.11-.09-1.75-1.37-4.55-3.07-8.39-5.1-3.94-2.1-6.92-3.83-8.96-5.19-2.03-1.38-3.84-3.23-5.42-5.58-.11-.16-.21-.32-.29-.48-1.38-2.26-2.06-4.99-2.06-8.19,0-2.34.47-4.45,1.41-6.34.97-1.98,2.46-3.72,4.46-5.22.53-.4,1.09-.77,1.68-1.1h0c3.75-2.22,8.63-3.32,14.63-3.32s10.44.9,13.72,2.71c.52.28,1.01.59,1.47.92,3.28,2.37,4.94,5.2,4.99,8.48,0,0,.01.01,0,.02.01.05.01.11.01.16,0,2.1-.69,3.81-2.06,5.15-1.23,1.2-2.7,1.86-4.41,1.98-.19.01-.38.02-.57.02-1.83,0-3.4-.54-4.69-1.63-1.29-1.08-1.93-2.5-1.93-4.25,0-.2.01-.4.02-.6.01-.13.02-.27.04-.41-.01-.01,0-.02,0-.03.06-.57.18-1.16.35-1.75.28-.94.66-1.73,1.15-2.37-1.41-1.11-3.5-1.67-6.29-1.67-2.25,0-4.01.53-5.27,1.58-1.25,1.04-1.88,2.37-1.88,3.98,0,.28.02.56.05.83v.04c.21,1.79,1.07,3.28,2.58,4.49,1.75,1.4,4.54,3.08,8.39,5.04,3.65,1.9,6.53,3.56,8.63,4.96,2.09,1.39,3.91,3.24,5.45,5.56.21.32.41.65.59.99,1.16,2.11,1.73,4.62,1.73,7.53Z"/>
          <path class="cls-3" d="M947.51,235.7c0,1.62-.56,3.19-1.69,4.73-.16.22-.32.43-.51.63-1.09,1.26-2.61,2.32-4.55,3.16-1.49.65-3.19,1.08-5.09,1.29-.95.12-1.95.17-3,.17-4.9,0-8.84-1.4-11.83-4.19-1.48-1.39-2.59-3.24-3.33-5.56h0c-.75-2.34-1.13-5.15-1.13-8.42v-28.91h-6.62v-6.42h.01c1.3-.2,2.58-.85,3.82-1.96.5-.44.99-.95,1.48-1.54s.96-1.22,1.4-1.9c.05-.05.08-.1.1-.15,1.1-1.66,2.07-3.56,2.92-5.72,1.22-3.12,2-6.21,2.37-9.28v-.03s.04-.01.06-.01c1.23-.21,2.36-.33,3.4-.33,1.92,0,3.46.42,4.63,1.25.37.27.7.57,1,.92,1.12,1.32,1.73,2.78,1.81,4.38h0s.01.02,0,.03c.02.12.02.24.02.36v11.04h12.21c0,.27,0,.53-.01.78-.02,1.79-.14,3.33-.33,4.64-.04.31-.09.62-.16.91,0,.01-.01.01-.01.01-.23,1.12-.64,2.13-1.18,3.02h-10.31v29.64c0,2.1.41,3.55,1.25,4.36.41.39.91.69,1.5.89.14.05.28.09.43.12.12.04.25.06.38.08.13.03.27.05.41.06.1.02.21.03.32.03.17.01.35.02.54.02.3,0,.6-.02.9-.05h.02c.17-.02.35-.05.52-.08.12-.02.23-.04.35-.07.44-.09.88-.22,1.33-.38.21-.08.41-.16.62-.25.16-.06.31-.14.47-.21,1.29-.62,2.34-1.37,3.15-2.24.03-.04.07-.08.1-.12.08-.08.16-.17.23-.26.69.56,1.2,1.39,1.52,2.52.32,1.11.48,2.12.48,3.04Z"/>
          <path class="cls-3" d="M998.03,204.48c-.07-.46-.15-.91-.25-1.35-.82-3.86-2.52-7.06-5.09-9.58-.4-.4-.82-.77-1.26-1.11-.19-.17-.39-.33-.59-.47-3.53-2.65-8-3.98-13.4-3.98-5.04,0-9.56,1.21-13.56,3.63-1.21.74-2.34,1.56-3.4,2.49-1.92,1.68-3.58,3.69-4.98,6.01-.35.59-.69,1.21-1.02,1.85-.54,1.07-1.02,2.18-1.43,3.33-1.32,3.68-1.98,7.78-1.98,12.32,0,.63.01,1.25.04,1.86.2,5.04,1.23,9.47,3.1,13.28,1.27,2.57,2.85,4.77,4.76,6.59,1.27,1.23,2.69,2.28,4.24,3.18,3.89,2.24,8.42,3.36,13.61,3.36.56,0,1.1-.01,1.64-.05,3.07-.14,5.86-.72,8.4-1.72,2.11-.85,3.89-1.81,5.35-2.89.6-.43,1.14-.88,1.63-1.36,1.69-1.65,2.54-3.11,2.54-4.38,0-.84-.22-1.82-.65-2.94-.19-.51-.39-.97-.61-1.36-.12-.22-.25-.42-.38-.6-.15-.21-.31-.4-.47-.56h-.01s-.01.02-.02.02c-.34.25-.68.49-1.02.71-.36.24-.73.47-1.11.69-2.37,1.38-4.85,2.24-7.46,2.59-.88.12-1.78.18-2.69.18-1.07,0-2.08-.09-3.02-.26-2.48-.45-4.5-1.5-6.06-3.14-1.79-1.87-2.97-4.54-3.55-7.99-.2-1.18-.33-2.47-.39-3.84h22.71c2.51,0,4.25-.88,5.23-2.66.05-.09.1-.19.13-.28.32-.6.57-1.27.77-2.01.33-1.23.52-2.64.57-4.25.01-.26.01-.52.01-.78,0-1.59-.11-3.1-.33-4.53ZM982.27,207.17c-.05,1.16-.23,2.05-.52,2.68-.2.44-.53.75-.98.93-.34.14-.74.21-1.22.21h-10.61c.03-1.37.11-2.64.22-3.82.2-2.16.53-4,1-5.52.29-.95.63-1.78,1.02-2.47.06-.11.12-.21.18-.31,1.47-2.42,3.29-3.63,5.46-3.63,1.67,0,3.01.81,4,2.42.42.7.76,1.63,1,2.8.32,1.53.48,3.46.48,5.8,0,.32-.01.62-.03.91Z"/>
          <path class="cls-3" d="M1039.78,187.89c3.15,0,5.46.81,6.92,2.42,1.47,1.61,2.21,3.81,2.21,6.6,0,3.02-.79,5.47-2.38,7.38-1.57,1.89-3.68,2.83-6.33,2.83-2.32,0-4.2-.67-5.65-2-1.43-1.33-2.15-2.91-2.15-4.73,0-1.13.11-2,.33-2.63-2.53.63-4.67,1.71-6.42,3.25v31.54c0,1.75.24,3.08.73,4,.48.91,1.44,1.58,2.88,2.04,1.44.46,3.6.69,6.48.69,0,1.25-.14,2.32-.42,3.21-.28.88-.81,1.7-1.58,2.46h-28.06c-1.61-1.61-2.42-3.5-2.42-5.67,2.04,0,3.5-.44,4.38-1.31.88-.89,1.31-2.38,1.31-4.48v-30.38c0-1.89-.52-3.21-1.54-3.98-1.02-.78-2.81-1.17-5.4-1.17v-4.73c2.3-1.33,5.36-2.51,9.19-3.52,3.82-1.01,6.78-1.52,8.88-1.52,1.68,0,2.86.6,3.56,1.79.71,1.18,1.06,3.56,1.06,7.15,1.26-2.39,3.26-4.53,6-6.42,2.73-1.89,5.54-2.83,8.42-2.83Z"/>
          <path class="cls-3" d="M1092.74,231.6c.55.64,1.03,1.49,1.42,2.54.39,1.04.58,1.95.58,2.73,0,1.54-.81,3.05-2.42,4.52-1.61,1.46-3.77,2.68-6.48,3.67-2.7.98-5.62,1.48-8.77,1.48-5.11,0-9.64-1.16-13.56-3.46-3.92-2.32-6.97-5.65-9.15-10-2.17-4.34-3.25-9.5-3.25-15.46s1.17-11.38,3.52-15.85c2.34-4.48,5.6-7.92,9.77-10.29,4.18-2.39,8.86-3.58,14.04-3.58s9.22,1.24,12.13,3.73c2.92,2.49,4.38,5.66,4.38,9.5,0,3.29-.84,5.87-2.52,7.73-1.68,1.86-3.85,2.79-6.52,2.79-2.17,0-3.99-.8-5.46-2.42-1.47-1.61-2.21-3.57-2.21-5.9,0-1.54.28-2.83.83-3.88.55-1.05,1.32-2.01,2.31-2.85-1.13-.63-2.14-.94-3.04-.94-2.39,0-4.49,1.43-6.31,4.27-1.82,2.83-2.73,7.51-2.73,14.02,0,7.42,1.08,12.76,3.25,16.02,2.18,3.27,5.36,4.9,9.56,4.9,1.97,0,3.92-.28,5.83-.83,1.93-.57,3.53-1.38,4.79-2.44Z"/>
          <path class="cls-3" d="M1105.77,177.68c0-1.75-.52-3.06-1.54-3.94-1.02-.88-2.89-1.31-5.6-1.31v-4.21c2.51-1.4,5.69-2.59,9.54-3.56,3.86-.98,6.98-1.48,9.38-1.48,1.68,0,2.86.35,3.56,1.06.71.7,1.06,1.92,1.06,3.67v65.58c0,2.17.44,3.68,1.31,4.52.88.85,2.36,1.27,4.46,1.27,0,1.96-.84,3.85-2.52,5.67h-23.02c-1.61-1.75-2.42-3.64-2.42-5.67,2.04,0,3.51-.44,4.42-1.31.92-.89,1.38-2.38,1.38-4.48v-55.81Z"/>
          <path class="cls-3" d="M1180.38,232.24v-27.85c0-2.6-.41-4.9-1.22-6.91-.88-2.21-2.26-4.07-4.13-5.55-1.55-1.23-3.42-2.2-5.61-2.9-2.85-.91-6.24-1.37-10.16-1.37-.67,0-1.33.01-1.97.03-1.78.07-3.44.22-5,.46-2.18.33-4.15.84-5.91,1.51-3.46,1.33-6.03,3.09-7.73,5.27-1.68,2.17-2.52,4.48-2.52,6.94,0,1.32.23,2.51.71,3.56.02.06.04.11.07.16.39.84.94,1.59,1.64,2.26,1.61,1.54,3.75,2.31,6.42,2.31,2.45,0,4.49-.7,6.1-2.11.02-.02.04-.03.05-.05.72-.63,1.28-1.36,1.66-2.17.41-.81.63-1.7.68-2.69.02-.17.03-.36.03-.54,0-.11,0-.23-.01-.34-.04-.79-.21-1.52-.53-2.21-.12-.3-.28-.59-.46-.87-.67-1.01-1.66-1.73-2.99-2.17h0c1.47-1.11,3.36-1.66,5.67-1.66s4.26.61,5.67,1.83c.71.62,1.24,1.44,1.59,2.47.35,1,.52,2.19.52,3.57v13.98c-.89-.43-1.93-.82-3.14-1.15-.7-.19-1.46-.36-2.28-.52-2.19-.42-4.34-.64-6.41-.64h-.05c-1.89,0-3.63.13-5.22.4h-.01c-3.51.59-6.32,1.82-8.44,3.7-.45.4-.86.81-1.23,1.25-.91,1.04-1.64,2.19-2.18,3.46-.49,1.16-.83,2.41-1.03,3.75-.12.86-.18,1.75-.18,2.69,0,.22,0,.43.02.65.14,4.26,1.76,7.77,4.85,10.54.57.51,1.17.97,1.81,1.39,1.8,1.19,3.85,2.03,6.15,2.5,1.5.31,3.12.46,4.84.46,2.92,0,5.54-.47,7.85-1.42.01,0,.01-.01.02-.01,2.29-.93,4.23-2.09,5.84-3.48.01-.01.03-.02.04-.03h0s.02.03.02.04c.61,1.01,1.35,1.87,2.23,2.56,0,.01.01.01.01.01.97.77,2.1,1.35,3.4,1.73,1.3.4,2.76.6,4.39.6h.05c2.17,0,4.3-.35,6.4-1.04.06-.02.12-.04.18-.07,1.4-.49,2.53-1.1,3.38-1.85.37-.31.69-.65.96-1.02v-3.37c-3.23-.7-4.84-2.72-4.84-6.09ZM1162.95,235.49h-.01c-.71.49-1.57.89-2.58,1.21s-2.05.48-3.1.48c-2.01,0-3.64-.56-4.88-1.69-.06-.04-.11-.09-.16-.14-.45-.44-.82-.93-1.1-1.46-.01-.02-.02-.03-.03-.05-.5-.93-.75-1.99-.75-3.18,0-1.49.26-2.74.78-3.78.02-.05.05-.11.08-.16.27-.52.61-.97,1.02-1.37.02-.02.04-.04.06-.05,1.25-1.19,2.84-1.79,4.77-1.79.98,0,2.02.18,3.1.52,1.09.35,2,.77,2.79,1.27h.01v10.19Z"/>
          <path class="cls-3" d="M1211.17,245.99c-3.43,0-6.85-.51-10.25-1.52-3.39-1.01-6.18-2.46-8.35-4.35-2.17-1.89-3.25-4.13-3.25-6.73,0-2.46.7-4.44,2.1-5.94,1.4-1.5,3.19-2.25,5.35-2.25,1.96,0,3.61.64,4.98,1.9,1.38,1.25,2.06,2.89,2.06,4.92,0,.92-.13,1.71-.38,2.38-.24.67-.67,1.39-1.29,2.15.55.57,1.6,1.02,3.15,1.33,1.54.31,3.19.46,4.94.46,2.39,0,4.26-.44,5.63-1.31,1.36-.88,2.04-2.01,2.04-3.42,0-1.89-.88-3.51-2.63-4.88-1.75-1.38-4.55-3.07-8.4-5.1-3.93-2.09-6.92-3.82-8.96-5.19-2.03-1.38-3.83-3.23-5.42-5.58-1.57-2.34-2.35-5.23-2.35-8.67,0-4.78,1.96-8.63,5.88-11.56,3.93-2.94,9.36-4.42,16.31-4.42s11.85,1.21,15.19,3.63c3.33,2.42,5,5.31,5,8.67,0,2.1-.69,3.81-2.06,5.15-1.36,1.33-3.02,2-4.98,2-1.83,0-3.4-.54-4.69-1.63s-1.94-2.5-1.94-4.25c0-.92.14-1.84.42-2.79.28-.94.66-1.73,1.15-2.38-1.41-1.11-3.5-1.67-6.29-1.67-2.25,0-4.01.53-5.27,1.58-1.25,1.04-1.88,2.37-1.88,3.98,0,2.17.88,3.95,2.63,5.35,1.75,1.41,4.55,3.08,8.4,5.04,3.65,1.91,6.53,3.56,8.63,4.96,2.09,1.39,3.92,3.24,5.46,5.56,1.54,2.31,2.31,5.15,2.31,8.52,0,5.46-2.22,9.5-6.67,12.13-4.45,2.63-9.97,3.94-16.56,3.94Z"/>
          <path class="cls-3" d="M1261.09,245.99c-3.43,0-6.85-.51-10.25-1.52-3.39-1.01-6.18-2.46-8.35-4.35-2.17-1.89-3.25-4.13-3.25-6.73,0-2.46.7-4.44,2.1-5.94,1.4-1.5,3.19-2.25,5.35-2.25,1.96,0,3.61.64,4.98,1.9,1.38,1.25,2.06,2.89,2.06,4.92,0,.92-.13,1.71-.38,2.38-.24.67-.67,1.39-1.29,2.15.55.57,1.6,1.02,3.15,1.33,1.54.31,3.19.46,4.94.46,2.39,0,4.26-.44,5.63-1.31,1.36-.88,2.04-2.01,2.04-3.42,0-1.89-.88-3.51-2.63-4.88-1.75-1.38-4.55-3.07-8.4-5.1-3.93-2.09-6.92-3.82-8.96-5.19-2.03-1.38-3.83-3.23-5.42-5.58-1.57-2.34-2.35-5.23-2.35-8.67,0-4.78,1.96-8.63,5.88-11.56,3.93-2.94,9.36-4.42,16.31-4.42s11.85,1.21,15.19,3.63c3.33,2.42,5,5.31,5,8.67,0,2.1-.69,3.81-2.06,5.15-1.36,1.33-3.02,2-4.98,2-1.83,0-3.4-.54-4.69-1.63s-1.94-2.5-1.94-4.25c0-.92.14-1.84.42-2.79.28-.94.66-1.73,1.15-2.38-1.41-1.11-3.5-1.67-6.29-1.67-2.25,0-4.01.53-5.27,1.58-1.25,1.04-1.88,2.37-1.88,3.98,0,2.17.88,3.95,2.63,5.35,1.75,1.41,4.55,3.08,8.4,5.04,3.65,1.91,6.53,3.56,8.63,4.96,2.09,1.39,3.92,3.24,5.46,5.56,1.54,2.31,2.31,5.15,2.31,8.52,0,5.46-2.22,9.5-6.67,12.13-4.45,2.63-9.97,3.94-16.56,3.94Z"/>
        </g>
        <g class="cls-4">
          <path class="cls-3" d="M138.29,123.35c67.68,0,122.54-18.29,122.54-40.84,0-16.51-29.38-30.73-71.65-37.17l-15.93-38.24c-.15-.36-.32-.72-.52-1.06s-.41-.67-.64-.99c-.23-.32-.48-.62-.74-.91s-.55-.57-.85-.82c-.3-.26-.61-.5-.93-.72-.33-.22-.67-.43-1.02-.61s-.71-.34-1.07-.48c-.37-.14-.74-.26-1.13-.36-.38-.1-.77-.17-1.16-.22-.39-.05-.79-.08-1.18-.09-.4,0-.79.01-1.18.05-.39.04-.78.1-1.17.18-.39.08-.77.19-1.14.31-.38.13-.74.28-1.09.44s-.7.36-1.04.57-.66.44-.96.68l-19.15,15.33-19.15-15.33c-.31-.24-.63-.47-.96-.68s-.68-.4-1.04-.57c-.35-.17-.72-.32-1.09-.44-.37-.13-.75-.23-1.14-.31-.39-.08-.78-.15-1.17-.18-.39-.04-.79-.05-1.18-.05-.4.01-.79.04-1.18.09-.39.05-.78.13-1.16.22-.38.1-.76.22-1.12.36-.37.14-.73.3-1.08.48s-.69.39-1.01.61c-.33.22-.64.46-.94.72-.3.26-.58.53-.84.82s-.52.59-.75.91c-.23.32-.44.65-.63.99-.19.34-.36.7-.52,1.06l-15.93,38.24c-42.28,6.44-71.65,20.66-71.65,37.17,0,22.56,54.86,40.84,122.54,40.84Z"/>
        </g>
        <g id="Layer_2-2" data-name="Layer 2">
          <g id="linkedin">
            <g id="icon">
              <path class="cls-3" d="M269.61,206.99h-38.09c-2.84,0-5.15,2.3-5.15,5.14v38.09c0,2.84,2.31,5.15,5.15,5.15h38.09c2.84,0,5.14-2.31,5.14-5.15v-38.09c0-2.84-2.3-5.14-5.14-5.14ZM268.82,246.52c.01.8-.3,1.55-.87,2.12-.57.58-1.33.89-2.13.89h-5.07c-1.66,0-3.02-1.34-3.02-3v-9.65c.02-.79.05-2.66-.62-3.35-.08-.08-.3-.3-.99-.3-1.07,0-1.7.91-1.87,2.72v10.58c0,1.64-1.33,2.99-2.97,3.02h-4.92c-1.1,0-2.07-.6-2.59-1.48-.55.88-1.52,1.47-2.64,1.48h-4.71c-1.71,0-3.1-1.39-3.11-3.1v-19.74c0-1.03.51-1.94,1.28-2.51-1.39-1.19-2.28-2.95-2.28-4.93,0-.58.08-1.15.23-1.68.73-2.75,3.25-4.78,6.23-4.78,1.25,0,2.42.35,3.41.98,1.84,1.14,3.06,3.17,3.06,5.48,0,1.98-.89,3.75-2.29,4.93.32.24.6.54.82.88.12-.21.27-.4.45-.58.57-.57,1.33-.89,2.13-.89h4.9c.85,0,1.62.35,2.16.92,1.46-.85,3.23-1.25,5.37-1.25,4.3,0,7.37,1.89,8.88,5.47,1.16,2.76,1.16,5.87,1.16,8.15v9.62Z"/>
              <path class="cls-3" d="M266.74,229.14c-1.36-3.23-4.04-4.86-7.96-4.86-2.39,0-4.21.52-5.64,1.64-.29-.77-1.03-1.31-1.89-1.31h-4.9c-1.11,0-2.01.91-2,2.02v19.9c0,1.11.9,2.02,2.01,2.02h4.89c1.11-.02,2-.93,2-2.02v-10.67c.12-1.3.65-3.63,2.87-3.63.75,0,1.31.2,1.71.6.96.99.92,3.07.9,4.07v9.62c0,1.11.91,2.01,2.01,2.01h5.07c1.12,0,2.02-.91,2.01-2.02v-9.53c0-2.27,0-5.27-1.08-7.84ZM266.82,246.52c.01.56-.45,1.01-1.01,1.01h-5.07c-.56,0-1.01-.45-1.01-1.01v-9.24c0-1.39.4-6.05-3.61-6.05-3.11,0-3.74,3.19-3.87,4.63v10.67c0,.55-.45,1.01-1,1.02h-4.89c-.56,0-1.01-.46-1.01-1.02v-19.9c-.01-.56.45-1.02,1.01-1.02h4.89c.56,0,1.02.45,1.02,1.02v1.72c1.15-1.74,2.86-3.07,6.51-3.07,8.09,0,8.04,7.55,8.04,11.7v9.54ZM266.74,229.14c-1.36-3.23-4.04-4.86-7.96-4.86-2.39,0-4.21.52-5.64,1.64-.29-.77-1.03-1.31-1.89-1.31h-4.9c-1.11,0-2.01.91-2,2.02v19.9c0,1.11.9,2.02,2.01,2.02h4.89c1.11-.02,2-.93,2-2.02v-10.67c.12-1.3.65-3.63,2.87-3.63.75,0,1.31.2,1.71.6.96.99.92,3.07.9,4.07v9.62c0,1.11.91,2.01,2.01,2.01h5.07c1.12,0,2.02-.91,2.01-2.02v-9.53c0-2.27,0-5.27-1.08-7.84ZM266.82,246.52c.01.56-.45,1.01-1.01,1.01h-5.07c-.56,0-1.01-.45-1.01-1.01v-9.24c0-1.39.4-6.05-3.61-6.05-3.11,0-3.74,3.19-3.87,4.63v10.67c0,.55-.45,1.01-1,1.02h-4.89c-.56,0-1.01-.46-1.01-1.02v-19.9c-.01-.56.45-1.02,1.01-1.02h4.89c.56,0,1.02.45,1.02,1.02v1.72c1.15-1.74,2.86-3.07,6.51-3.07,8.09,0,8.04,7.55,8.04,11.7v9.54ZM266.74,229.14c-1.36-3.23-4.04-4.86-7.96-4.86-2.39,0-4.21.52-5.64,1.64-.29-.77-1.03-1.31-1.89-1.31h-4.9c-1.11,0-2.01.91-2,2.02v19.9c0,1.11.9,2.02,2.01,2.02h4.89c1.11-.02,2-.93,2-2.02v-10.67c.12-1.3.65-3.63,2.87-3.63.75,0,1.31.2,1.71.6.96.99.92,3.07.9,4.07v9.62c0,1.11.91,2.01,2.01,2.01h5.07c1.12,0,2.02-.91,2.01-2.02v-9.53c0-2.27,0-5.27-1.08-7.84ZM266.82,246.52c.01.56-.45,1.01-1.01,1.01h-5.07c-.56,0-1.01-.45-1.01-1.01v-9.24c0-1.39.4-6.05-3.61-6.05-3.11,0-3.74,3.19-3.87,4.63v10.67c0,.55-.45,1.01-1,1.02h-4.89c-.56,0-1.01-.46-1.01-1.02v-19.9c-.01-.56.45-1.02,1.01-1.02h4.89c.56,0,1.02.45,1.02,1.02v1.72c1.15-1.74,2.86-3.07,6.51-3.07,8.09,0,8.04,7.55,8.04,11.7v9.54ZM266.74,229.14c-1.36-3.23-4.04-4.86-7.96-4.86-2.39,0-4.21.52-5.64,1.64-.29-.77-1.03-1.31-1.89-1.31h-4.9c-1.11,0-2.01.91-2,2.02v19.9c0,1.11.9,2.02,2.01,2.02h4.89c1.11-.02,2-.93,2-2.02v-10.67c.12-1.3.65-3.63,2.87-3.63.75,0,1.31.2,1.71.6.96.99.92,3.07.9,4.07v9.62c0,1.11.91,2.01,2.01,2.01h5.07c1.12,0,2.02-.91,2.01-2.02v-9.53c0-2.27,0-5.27-1.08-7.84ZM266.82,246.52c.01.56-.45,1.01-1.01,1.01h-5.07c-.56,0-1.01-.45-1.01-1.01v-9.24c0-1.39.4-6.05-3.61-6.05-3.11,0-3.74,3.19-3.87,4.63v10.67c0,.55-.45,1.01-1,1.02h-4.89c-.56,0-1.01-.46-1.01-1.02v-19.9c-.01-.56.45-1.02,1.01-1.02h4.89c.56,0,1.02.45,1.02,1.02v1.72c1.15-1.74,2.86-3.07,6.51-3.07,8.09,0,8.04,7.55,8.04,11.7v9.54Z"/>
              <path class="cls-3" d="M242.18,213.79c-.4.16-.82.31-1.24.47-.5.19-1.02.39-1.55.6-.2-.04-.41-.05-.62-.05-1.39,0-2.63.64-3.45,1.64-.51.21-1.02.42-1.55.63-.4.17-.81.33-1.23.51.73-2.75,3.25-4.78,6.23-4.78,1.25,0,2.42.35,3.41.98Z"/>
              <path class="cls-3" d="M267.66,228.75c-1.51-3.58-4.58-5.47-8.88-5.47-2.14,0-3.91.4-5.37,1.25-.54-.57-1.31-.92-2.16-.92h-4.9c-.8,0-1.56.32-2.13.89-.18.18-.33.37-.45.58-.22-.34-.5-.64-.82-.88,1.4-1.18,2.29-2.95,2.29-4.93,0-2.31-1.22-4.34-3.06-5.48-.4.16-.82.31-1.24.47-.5.19-1.02.39-1.55.6,2.18.29,3.85,2.16,3.85,4.41,0,2.47-2,4.47-4.47,4.47s-4.46-2-4.46-4.47c0-1.07.38-2.05,1.01-2.82-.51.21-1.02.42-1.55.63-.4.17-.81.33-1.23.51-.15.53-.23,1.1-.23,1.68,0,1.98.89,3.74,2.28,4.93-.77.57-1.28,1.48-1.28,2.51v19.74c.01,1.71,1.4,3.1,3.11,3.1h4.71c1.12-.01,2.09-.6,2.64-1.48.52.88,1.49,1.48,2.59,1.48h4.92c1.64-.03,2.97-1.38,2.97-3.02v-10.58c.17-1.81.8-2.72,1.87-2.72.69,0,.91.22.99.3.67.69.64,2.56.62,3.35v9.65c0,1.66,1.36,3,3.02,3h5.07c.8,0,1.56-.31,2.13-.89.57-.57.88-1.32.87-2.12v-9.62c0-2.28,0-5.39-1.16-8.15ZM242.23,246.44c0,.61-.49,1.1-1.1,1.11h-4.71c-.61,0-1.11-.5-1.11-1.1h0v-19.74c0-.61.5-1.1,1.11-1.1h4.71c.61,0,1.1.49,1.1,1.1v19.73ZM267.82,246.51c.01,1.11-.89,2.02-2.01,2.02h-5.07c-1.1,0-2.01-.9-2.01-2.01v-9.62c.02-1,.06-3.08-.9-4.07-.4-.4-.96-.6-1.71-.6-2.22,0-2.75,2.33-2.87,3.63v10.67c0,1.09-.89,2-2,2.02h-4.89c-1.11,0-2.01-.91-2.01-2.02v-19.9c-.01-1.11.89-2.02,2-2.02h4.9c.86,0,1.6.54,1.89,1.31,1.43-1.12,3.25-1.64,5.64-1.64,3.92,0,6.6,1.63,7.96,4.86,1.08,2.57,1.08,5.57,1.08,7.84v9.53Z"/>
            </g>
          </g>
        </g>
      </g>
      <g>
        <g>
          <path class="cls-3" d="M43.73,217.46c-1.22-1.4-3.02-2.28-5.02-2.29h-.7c-.22-.09-.43-.17-.64-.25v-2.66c1.84-.65,2.94-2.53,2.61-4.45-.33-1.93-1.99-3.33-3.94-3.33s-3.62,1.4-3.95,3.33c-.33,1.92.78,3.8,2.61,4.45v2.91h-16.01v-2.91c1.38-.49,2.35-1.67,2.6-3.04.09-.46.09-.93.01-1.41-.33-1.93-2-3.33-3.95-3.33-.2,0-.4.02-.6.05-1.68.25-3.04,1.55-3.34,3.28-.33,1.92.77,3.8,2.61,4.45v2.91h-1.34c-3.68,0-6.66,2.99-6.67,6.68v22.68c.01,3.69,2.99,6.67,6.67,6.68h4.01v5.34c0,.48.26.93.69,1.16.2.11.42.17.64.17.25,0,.49-.07.71-.2l10.35-6.47h7.63c3.68-.01,6.67-2.99,6.67-6.68v-22.68c0-1.68-.62-3.22-1.65-4.39ZM20.02,223.18c2.21,0,4,1.79,4.01,4,0,.74-.6,1.34-1.34,1.34s-1.33-.6-1.33-1.34-.6-1.33-1.34-1.33-1.33.6-1.33,1.33-.6,1.34-1.34,1.34-1.33-.6-1.33-1.34c0-2.21,1.79-4,4-4ZM36.63,239.72c-3.01,1.43-6.31,2.16-9.64,2.16h-.59c-3.33,0-6.63-.73-9.64-2.16-.66-.33-.93-1.13-.6-1.79.23-.47.71-.74,1.19-.74.21,0,.41.05.6.15,2.49,1.24,5.62,1.86,8.75,1.86s6.25-.62,8.74-1.86c.19-.1.4-.15.6-.15.49,0,.96.27,1.19.74.33.66.06,1.46-.6,1.79ZM36.98,228.13c-.25.25-.59.39-.94.39s-.7-.14-.95-.39-.39-.59-.39-.95c0-.73-.59-1.33-1.33-1.33s-1.34.6-1.34,1.33-.59,1.34-1.33,1.34-1.33-.6-1.33-1.34c0-2.21,1.79-4,4-4s4,1.79,4,4c0,.36-.14.7-.39.95Z"/>
          <path class="cls-2" d="M37.37,214.92v.25h.64c-.22-.09-.43-.17-.64-.25Z"/>
        </g>
        <path class="cls-3" d="M53.39,229.85v5.34c0,2.21-1.8,4-4.01,4.01h-1.33v-13.35h1.33c2.21,0,4.01,1.79,4.01,4Z"/>
        <path class="cls-3" d="M5.34,225.85v13.35h-1.33c-2.21-.01-4-1.8-4.01-4.01v-5.34c.01-2.21,1.8-4,4.01-4h1.33Z"/>
      </g>
    </g>
  </g>
</svg>